<?xml version="1.0" encoding="UTF-8"?>
<svg version="1.1" xmlns="http://www.w3.org/2000/svg" width="1225" height="1200">
<path d="M0 0 C404.25 0 808.5 0 1225 0 C1225 396 1225 792 1225 1200 C820.75 1200 416.5 1200 0 1200 C0 804 0 408 0 0 Z " fill="#16158B" transform="translate(0,0)"/>
<path d="M0 0 C1.14800583 -0.0143811 2.29601166 -0.02876221 3.47880554 -0.0435791 C5.37770035 -0.05939529 5.37770035 -0.05939529 7.31495667 -0.07553101 C8.65699589 -0.08997833 9.9990318 -0.10473596 11.34106445 -0.11978149 C23.61612645 -0.25027838 35.89210438 -0.31598153 48.16772366 -0.36762428 C57.23571111 -0.40647102 66.30245012 -0.47469931 75.36988968 -0.58217204 C81.75134489 -0.65524105 88.1324607 -0.69349356 94.5143171 -0.70665014 C98.32206593 -0.71548426 102.12827253 -0.73947327 105.93556023 -0.80131912 C109.52551606 -0.85896749 113.11315078 -0.87312969 116.70350075 -0.85544586 C118.63273552 -0.85672992 120.56178455 -0.90248516 122.49043274 -0.95007324 C132.07763652 -0.83717951 136.92405899 2.50493163 143.59449768 9.18081665 C144.90472979 10.45208184 144.90472979 10.45208184 146.24143124 11.74902916 C148.39603174 13.86009779 150.49934418 16.01098441 152.59449768 18.18081665 C153.31766174 18.88593384 154.04082581 19.59105103 154.78590393 20.3175354 C158.51864037 24.16314076 157.77812602 28.39300351 157.81910706 33.46060181 C157.83049713 34.42340057 157.84188721 35.38619934 157.85362244 36.37817383 C157.96431302 46.45732805 158.01171315 56.53721773 158.05445862 66.61685181 C158.07672894 71.39911811 158.11848924 76.18060346 158.17750549 80.96255493 C158.24861659 86.73563473 158.2852947 92.50797978 158.2975769 98.28147507 C158.30797443 100.47991241 158.3303912 102.67832767 158.36517334 104.87651443 C158.41143693 107.96009867 158.41337266 111.04080927 158.40504456 114.12466431 C158.42864044 115.02783386 158.45223633 115.93100342 158.47654724 116.86154175 C158.39541888 123.08864157 156.67106475 126.14323473 152.310112 130.56538963 C151.74395927 131.09848055 151.17780655 131.63157146 150.59449768 132.18081665 C149.51555237 133.29069946 149.51555237 133.29069946 148.41481018 134.42300415 C147.85535706 134.96183228 147.29590393 135.5006604 146.71949768 136.05581665 C144.31930616 138.367736 144.31930616 138.367736 142.59449768 141.18081665 C141.93449768 141.18081665 141.27449768 141.18081665 140.59449768 141.18081665 C140.36762268 141.75831665 140.14074768 142.33581665 139.90699768 142.93081665 C137.92820231 146.32303728 135.08462826 148.43575136 131.59449768 150.18081665 C129.80898645 150.28265383 128.01967394 150.32029324 126.23127747 150.32798767 C125.09287415 150.33514297 123.95447083 150.34229828 122.78157043 150.34967041 C121.52648682 150.35235931 120.2714032 150.35504822 118.97828674 150.3578186 C117.66114685 150.3643898 116.34400696 150.370961 114.98695374 150.37773132 C111.36695614 150.39514746 107.74697175 150.40569504 104.12694263 150.41393685 C101.86516656 150.41908642 99.60339458 150.42516221 97.3416214 150.43144798 C90.26483187 150.45050301 83.18805279 150.46473268 76.11124253 150.47305995 C67.94288707 150.48283026 59.77480275 150.50914282 51.60654283 150.54956084 C45.29308284 150.57972843 38.97970054 150.59452948 32.66616988 150.59784096 C28.89545529 150.60019101 25.12503026 150.60914481 21.35439301 150.63430214 C17.80517205 150.65759905 14.25643094 150.66180996 10.70715332 150.65154076 C8.78790681 150.65081005 6.86868458 150.6698907 4.94953918 150.68960571 C-1.46595878 150.65085759 -5.5539099 150.55769515 -10.40550232 146.18081665 C-11.02409119 145.64762817 -11.64268005 145.1144397 -12.28001404 144.56509399 C-12.79322205 144.05414185 -13.30643005 143.5431897 -13.83518982 143.01675415 C-14.68597107 142.16984009 -14.68597107 142.16984009 -15.55393982 141.30581665 C-16.12370544 140.72831665 -16.69347107 140.15081665 -17.28050232 139.55581665 C-17.87347107 138.97058228 -18.46643982 138.3853479 -19.07737732 137.78237915 C-23.40550232 133.43430887 -23.40550232 133.43430887 -23.40550232 131.18081665 C-24.39550232 130.85081665 -25.38550232 130.52081665 -26.40550232 130.18081665 C-31.25951552 124.81415807 -32.12874536 119.55448647 -32.02073669 112.55532837 C-32.02628571 111.62745514 -32.03183472 110.69958191 -32.03755188 109.74359131 C-32.0492933 106.69869159 -32.02513219 103.65529813 -31.99925232 100.61050415 C-31.99753995 98.48396879 -31.99760818 96.35743131 -31.99937439 94.230896 C-31.99772437 89.78414592 -31.97908151 85.33790195 -31.94749451 80.89126587 C-31.90776995 75.19720935 -31.90345698 69.50381355 -31.91095734 63.8096447 C-31.91402908 59.4223833 -31.90189995 55.03526991 -31.88482666 50.64804459 C-31.87780669 48.54853366 -31.87467091 46.44900598 -31.8755188 44.34948349 C-31.87371752 41.41518661 -31.85230849 38.48167638 -31.82542419 35.54751587 C-31.8283548 34.68398499 -31.8312854 33.8204541 -31.83430481 32.93075562 C-31.75379886 27.22469112 -30.79051438 23.01444108 -26.9985199 18.50918579 C-26.52051941 18.08242554 -26.04251892 17.65566528 -25.55003357 17.2159729 C-25.01354187 16.72911011 -24.47705017 16.24224731 -23.92430115 15.7406311 C-23.36122253 15.24651733 -22.79814392 14.75240356 -22.21800232 14.24331665 C-21.64009949 13.72406616 -21.06219666 13.20481567 -20.46678162 12.66983032 C-18.78723783 11.16473587 -17.09735324 9.67204466 -15.40550232 8.18081665 C-14.55987732 7.4228479 -13.71425232 6.66487915 -12.84300232 5.88394165 C-8.32323791 1.86268067 -6.19142138 0.06656482 0 0 Z " fill="#FDFDFD" transform="translate(534.4055023193359,533.8191833496094)"/>
<path d="M0 0 C1.05426178 -0.0071553 2.10852356 -0.01431061 3.19473267 -0.02168274 C4.3563089 -0.02437164 5.51788513 -0.02706055 6.71466064 -0.02983093 C7.93426483 -0.03640213 9.15386902 -0.04297333 10.41043091 -0.04974365 C14.46138755 -0.06951418 18.51230455 -0.08114776 22.56329346 -0.09111023 C23.95802073 -0.09515774 25.3527478 -0.09927466 26.74747467 -0.10346031 C33.30100667 -0.12251483 39.85452739 -0.1367444 46.40808177 -0.14507228 C53.97084162 -0.15484133 61.53330851 -0.18115073 69.09596515 -0.22157317 C74.94233788 -0.25174847 80.78862672 -0.26654255 86.63507581 -0.26985329 C90.12634348 -0.27220254 93.61729829 -0.28114562 97.10848236 -0.30631447 C101.00594927 -0.33395768 104.90303197 -0.32975968 108.80059814 -0.32279968 C109.95407745 -0.33560974 111.10755676 -0.3484198 112.29598999 -0.36161804 C121.93269132 -0.2988185 125.55285928 2.43544619 132.34454346 9.20967102 C133.05716339 9.91942078 133.05716339 9.91942078 133.78417969 10.64350891 C134.77811198 11.63609058 135.76956497 12.63116073 136.75860596 13.62861633 C138.26943796 15.15021203 139.79071982 16.66077199 141.31329346 18.17060852 C142.28268576 19.14132168 143.25145787 20.11265467 144.21954346 21.08467102 C145.09256104 21.95994446 145.96557861 22.8352179 146.86505127 23.73701477 C150.18603565 27.45748207 151.26443018 30.11484473 151.29107666 35.09590149 C151.30060867 36.07727081 151.31014069 37.05864014 151.31996155 38.06974792 C151.31859444 39.65108017 151.31859444 39.65108017 151.31719971 41.26435852 C151.32148483 42.35427094 151.32576996 43.44418335 151.33018494 44.56712341 C151.33592604 46.87195644 151.33643012 49.17680758 151.33209229 51.48164368 C151.32893656 55.00197919 151.35238043 58.5214709 151.37774658 62.04170227 C151.38002006 64.28258663 151.38072285 66.52347324 151.37969971 68.76435852 C151.38890945 69.81453156 151.3981192 70.86470459 151.40760803 71.94670105 C151.37303139 77.42937712 151.14905669 81.43060916 148.01641846 86.14717102 C146.28204346 87.72920227 146.28204346 87.72920227 144.26641846 88.95967102 C143.48911377 89.44306946 142.71180908 89.9264679 141.91094971 90.42451477 C140.95575439 90.99299133 140.00055908 91.5614679 139.01641846 92.14717102 C137.70742656 92.93948236 136.39886303 93.73250166 135.09063721 94.52607727 C131.40997617 96.75144148 127.71614113 98.95365955 124.01641846 101.14717102 C128.53099421 107.66560253 133.78558063 113.12508428 139.45391846 118.64717102 C144.67610455 123.7585959 149.76137884 128.88185665 154.51763916 134.43232727 C156.97117971 137.23957093 159.69361915 139.74517322 162.41485596 142.28779602 C164.14731969 144.29914416 164.80903032 145.50570103 165.01641846 148.14717102 C162.53666586 150.62692362 161.66833109 150.44861571 158.23809814 150.59638977 C156.74448761 150.6639447 156.74448761 150.6639447 155.22070312 150.73286438 C150.62004378 150.87555762 146.02003346 150.99016128 141.41778564 151.0670929 C139.0042115 151.12002498 136.59107727 151.20157015 134.17950439 151.31318665 C113.13549892 152.27526456 113.13549892 152.27526456 106.46759033 147.24092102 C103.35307392 144.38774937 100.7399216 141.24329019 98.25634766 137.83372498 C96.70633486 135.72539475 94.94139878 133.8755792 93.13360596 131.98701477 C90.58469987 129.03635328 88.59586401 125.88778314 86.52423096 122.58857727 C80.80936223 114.46659008 74.94261779 107.58166374 64.88702393 105.4990387 C47.12747076 103.16496341 28.84230632 104.30172143 11.01641846 105.14717102 C11.01641846 119.99717102 11.01641846 134.84717102 11.01641846 150.14717102 C-2.51358154 150.14717102 -16.04358154 150.14717102 -29.98358154 150.14717102 C-30.1191244 133.70929753 -30.229607 117.27190234 -30.29445457 100.83362484 C-30.32536734 93.20071313 -30.36749762 85.56817378 -30.43621826 77.9355011 C-30.49610038 71.28132342 -30.53474947 64.62741544 -30.54811251 57.97297579 C-30.55592172 54.45069867 -30.57421862 50.92919299 -30.61796188 47.40716362 C-30.66644634 43.4713148 -30.66751572 39.53621445 -30.66473389 35.60005188 C-30.68630554 34.43767502 -30.7078772 33.27529816 -30.73010254 32.07769775 C-30.68947645 26.76684116 -30.57800049 23.14900418 -27.06723022 18.98971558 C-26.06701243 18.01304163 -25.04191183 17.06055191 -23.98358154 16.14717102 C-23.31713623 15.50908508 -22.65069092 14.87099915 -21.96405029 14.21357727 C-21.37237061 13.71728821 -20.78069092 13.22099915 -20.17108154 12.70967102 C-16.34097662 9.45518881 -12.59767437 6.1159865 -8.86639404 2.74873352 C-5.80414621 0.1439169 -3.94627186 0.01834013 0 0 Z " fill="#FDFDFD" transform="translate(740.9835815429688,533.8528289794922)"/>
<path d="M0 0 C1.53795831 0.00141167 3.07591999 0.00061617 4.61387634 -0.00221252 C8.7747838 -0.00364347 12.93496634 0.02569349 17.09570575 0.06065726 C21.44918791 0.09197481 25.80268783 0.09485575 30.15626526 0.1007843 C38.39394591 0.11630693 46.63129364 0.15731386 54.86882788 0.20753175 C64.24965942 0.26347454 73.6305071 0.2909241 83.011464 0.31600893 C102.30287285 0.36823132 121.59382549 0.45990312 140.88500977 0.56762695 C140.88500977 11.45762695 140.88500977 22.34762695 140.88500977 33.56762695 C136.80593262 33.59268311 132.72685547 33.61773926 128.52416992 33.64355469 C115.07714614 33.72686956 101.63016209 33.81552558 88.1831913 33.90696621 C80.02684601 33.96229869 71.87049635 34.01578072 63.71411133 34.06494141 C56.60692547 34.10778295 49.49977182 34.15406086 42.3926357 34.2045055 C38.62774057 34.23110669 34.86285182 34.25595977 31.09791946 34.27670097 C26.9001108 34.29989119 22.7023928 34.33075168 18.50463867 34.36230469 C17.24947952 34.36806015 15.99432037 34.37381561 14.7011261 34.37974548 C13.56246597 34.3895343 12.42380585 34.39932312 11.25064087 34.40940857 C10.25694803 34.41586112 9.2632552 34.42231367 8.23945045 34.42896175 C5.86456392 34.41374418 5.86456392 34.41374418 3.88500977 35.56762695 C3.86188601 45.85067233 3.84409451 56.13371157 3.83319759 66.41677761 C3.82796884 71.19110975 3.82087133 75.96542416 3.80957031 80.73974609 C3.79874117 85.34328957 3.79273288 89.94681595 3.79013252 94.55037117 C3.78827832 96.31072318 3.7846578 98.07107422 3.77927971 99.83141899 C3.77206891 102.28834973 3.77101884 104.7452089 3.77148438 107.20214844 C3.76609146 108.30481804 3.76609146 108.30481804 3.7605896 109.42976379 C3.47100308 112.78345802 3.47100308 112.78345802 4.88500977 115.56762695 C6.31214597 115.66532897 7.74408406 115.6939439 9.17456055 115.6946106 C10.56279022 115.69884033 10.56279022 115.69884033 11.97906494 115.70315552 C13.00247986 115.70113129 14.02589478 115.69910706 15.08032227 115.69702148 C16.68747101 115.69964996 16.68747101 115.69964996 18.3270874 115.70233154 C21.88807774 115.70675249 25.44901888 115.70381121 29.01000977 115.70043945 C31.47241221 115.70111242 33.93481458 115.70208239 36.3972168 115.70333862 C41.56568024 115.70481593 46.73412644 115.70266 51.90258789 115.69799805 C58.54441704 115.69230075 65.18620578 115.69557958 71.82803345 115.70157051 C76.91504219 115.70517525 82.00204127 115.70403794 87.08905029 115.70144272 C89.53879806 115.70077321 91.98854669 115.70160271 94.43829346 115.70392227 C97.85545187 115.70644737 101.27254384 115.70261021 104.68969727 115.69702148 C106.22481964 115.70005783 106.22481964 115.70005783 107.79095459 115.70315552 C108.71644104 115.70033569 109.64192749 115.69751587 110.59545898 115.6946106 C111.80889481 115.69404506 111.80889481 115.69404506 113.04684448 115.69346809 C114.9030247 115.76866533 114.9030247 115.76866533 115.88500977 114.56762695 C116.21500977 106.97762695 116.54500977 99.38762695 116.88500977 91.56762695 C91.14500977 91.56762695 65.40500977 91.56762695 38.88500977 91.56762695 C38.88500977 80.67762695 38.88500977 69.78762695 38.88500977 58.56762695 C78.81500977 58.56762695 118.74500977 58.56762695 159.88500977 58.56762695 C159.96750977 68.98325195 160.05000977 79.39887695 160.13500977 90.13012695 C160.17142578 93.40764893 160.2078418 96.6851709 160.24536133 100.06201172 C160.25704739 102.66934555 160.26723941 105.2766867 160.27563477 107.8840332 C160.28608826 108.55409897 160.29654175 109.22416473 160.30731201 109.91453552 C160.44954965 119.51979752 160.02690013 124.70336893 153.75024414 132.07470703 C153.0006543 132.82131592 152.25106445 133.5679248 151.47875977 134.3371582 C150.6524707 135.16280273 149.82618164 135.98844727 148.97485352 136.83911133 C148.12020508 137.67764648 147.26555664 138.51618164 146.38500977 139.38012695 C145.53036133 140.23799805 144.67571289 141.09586914 143.79516602 141.97973633 C134.88850504 150.8099751 134.88850504 150.8099751 126.86367798 150.83505249 C125.01311546 150.84784744 125.01311546 150.84784744 123.12516785 150.86090088 C121.76077258 150.86020188 120.39637741 150.85927883 119.03198242 150.8581543 C117.59286653 150.86413968 116.15375385 150.87094525 114.71464539 150.87850952 C110.80756202 150.89617578 106.90056627 150.90086516 102.99344683 150.90214109 C100.5517476 150.9035629 98.11007062 150.90783303 95.66837692 150.91313553 C87.14812557 150.93163784 78.62793679 150.93980589 70.10766602 150.93823242 C62.16870004 150.93703095 54.23000591 150.95813382 46.29110873 150.98971975 C39.47229409 151.01588137 32.65356824 151.02659977 25.8347038 151.0253216 C21.76334856 151.02481193 17.69223492 151.03049762 13.62092972 151.0516777 C9.79096621 151.07105836 5.96147479 151.07118612 2.13149452 151.05664444 C0.72785438 151.054555 -0.67581529 151.05926544 -2.07940483 151.07136536 C-15.14182284 151.17665682 -15.14182284 151.17665682 -20.11499023 146.56762695 C-20.8693335 145.9039209 -21.62367676 145.24021484 -22.40087891 144.55639648 C-24.70938557 142.27617451 -27.01271922 139.99168333 -29.30249023 137.69262695 C-30.51195312 136.50733398 -30.51195312 136.50733398 -31.74584961 135.2980957 C-32.5212207 134.52336914 -33.2965918 133.74864258 -34.09545898 132.95043945 C-34.79566162 132.25321777 -35.49586426 131.55599609 -36.21728516 130.83764648 C-40.99060708 125.12783725 -41.55576598 120.22371466 -41.51904297 113.07739258 C-41.52933784 111.67139046 -41.52933784 111.67139046 -41.5398407 110.23698425 C-41.55809122 107.14912626 -41.55427403 104.06177713 -41.54858398 100.97387695 C-41.55314622 98.8220605 -41.55845192 96.6702455 -41.56446838 94.51843262 C-41.57339576 90.01279778 -41.57098005 85.50734023 -41.56103516 81.00170898 C-41.54953894 75.23131903 -41.56976925 69.46154042 -41.59895229 63.69123077 C-41.617307 59.24908571 -41.61702338 54.80708741 -41.61131477 50.36491394 C-41.61116151 48.23747398 -41.6172101 46.11002409 -41.62960625 43.98262024 C-41.64450242 41.00731126 -41.63384929 38.03313512 -41.61669922 35.05786133 C-41.62636719 34.18183762 -41.63603516 33.3058139 -41.64599609 32.40324402 C-41.56862225 25.98501801 -39.76662962 22.47671436 -35.39501953 17.68066406 C-34.83210205 17.15738525 -34.26918457 16.63410645 -33.68920898 16.0949707 C-33.05692383 15.50522461 -32.42463867 14.91547852 -31.77319336 14.30786133 C-31.12286133 13.71295898 -30.4725293 13.11805664 -29.80249023 12.50512695 C-28.84439453 11.60697266 -28.84439453 11.60697266 -27.86694336 10.69067383 C-25.97438196 8.94000659 -24.09559071 7.21885368 -22.11499023 5.56762695 C-21.22825623 4.71808441 -20.34152222 3.86854187 -19.42791748 2.99325562 C-13.72374395 -1.01460497 -6.67004203 -0.08571632 0 0 Z " fill="#FDFDFD" transform="translate(165.114990234375,533.432373046875)"/>
<path d="M0 0 C7.25858217 -0.20966561 14.51649924 -0.36900529 21.77750969 -0.46630955 C25.15029634 -0.51304317 28.5209939 -0.57628132 31.89257812 -0.67895508 C35.78049692 -0.78878735 39.66549445 -0.83931709 43.5546875 -0.87890625 C44.74988007 -0.92535782 45.94507263 -0.97180939 47.17648315 -1.01966858 C53.51236769 -1.02344523 57.33506302 -0.38675876 62.16137695 3.86889648 C63.8009216 5.55371551 65.41315849 7.26545227 67 9 C68.75616745 10.75677726 70.51579936 12.51009687 72.27856445 14.26025391 C73.66134476 15.67277068 75.04406459 17.08535176 76.42348671 18.50114822 C78.93452596 21.07430922 81.46212323 23.63117138 83.98632812 26.19140625 C87.17203456 29.42516258 90.35272249 32.66351567 93.51879883 35.91650391 C96.10446416 38.57228547 98.70442957 41.21328587 101.31462669 43.84495163 C102.30125813 44.84516364 103.28245543 45.85076679 104.25798988 46.86180496 C105.61415278 48.26606733 106.99084314 49.65041808 108.3684082 51.03369141 C109.14432816 51.82595123 109.92024811 52.61821106 110.71968079 53.43447876 C112.88982588 55.24865015 112.88982588 55.24865015 115.55241394 54.95657349 C118.29602863 53.88430513 119.73038728 52.75358419 121.79296875 50.66113281 C122.49719971 49.95659973 123.20143066 49.25206665 123.92700195 48.52618408 C124.67296631 47.75957458 125.41893066 46.99296509 126.1875 46.203125 C127.35768677 45.02444855 127.35768677 45.02444855 128.55151367 43.82196045 C131.04388929 41.30720905 133.52202682 38.77893654 136 36.25 C137.66834549 34.56158516 139.33760636 32.87407429 141.0078125 31.1875 C144.0799401 28.08272125 147.14671533 24.97286644 150.20703125 21.85644531 C159.01325148 12.89465915 159.01325148 12.89465915 162.5 10 C165.4890747 7.47328762 168.27001618 4.80798336 171 2 C173 0 173 0 175.44241333 -0.24050903 C176.98129715 -0.2338472 176.98129715 -0.2338472 178.55126953 -0.22705078 C180.29284836 -0.22682419 180.29284836 -0.22682419 182.0696106 -0.22659302 C183.32796722 -0.21627045 184.58632385 -0.20594788 185.8828125 -0.1953125 C187.16735321 -0.1924826 188.45189392 -0.18965271 189.77536011 -0.18673706 C193.19162767 -0.17909809 196.60772537 -0.15944752 200.02392578 -0.1373291 C203.50941673 -0.11687624 206.9949351 -0.10773655 210.48046875 -0.09765625 C217.32038231 -0.07620175 224.160183 -0.04206271 231 0 C231.19067383 4.73638916 231.19067383 4.73638916 229.47460938 7.10888672 C228.77142578 7.79225098 228.06824219 8.47561523 227.34375 9.1796875 C226.56773437 9.94410156 225.79171875 10.70851563 224.9921875 11.49609375 C224.16976563 12.28113281 223.34734375 13.06617188 222.5 13.875 C221.70851563 14.65230469 220.91703125 15.42960938 220.1015625 16.23046875 C216.47863436 19.76430849 212.80482659 23.20642715 208.96875 26.5078125 C204.41280297 30.44259726 200.21845231 34.70956044 196 39 C187.57808043 47.56563834 187.57808043 47.56563834 183.03125 51.46875 C178.26833486 55.56202757 173.90285874 60.02646937 169.5 64.5 C160.54547634 73.59825598 160.54547634 73.59825598 156.09375 77.40625 C155.45993408 77.98528076 154.82611816 78.56431152 154.1730957 79.16088867 C152 81 152 81 149.09838867 82.83325195 C144.44663667 86.2923048 141.59125112 89.12123473 140.39459229 94.94769287 C139.50580165 103.15855996 139.62606724 111.39619566 139.78112793 119.64190674 C139.83366986 123.06786561 139.82376464 126.49364524 139.81835938 129.91992188 C139.81228791 136.6167496 139.90852395 143.30097465 140 150 C123.83 150 107.66 150 91 150 C91 130.86 91 111.72 91 92 C89.02 91.01 89.02 91.01 87 90 C85.23838386 88.39094674 83.53058242 86.72229652 81.859375 85.01953125 C81.37349915 84.52845383 80.88762329 84.0373764 80.38702393 83.53141785 C78.83649697 81.96314352 77.29280844 80.38836518 75.75 78.8125 C73.72743902 76.75305438 71.70162488 74.69689224 69.671875 72.64453125 C69.17938263 72.14644958 68.68689026 71.64836792 68.17947388 71.13519287 C64.85509474 67.79709016 61.41490488 64.66231624 57.83203125 61.60717773 C54.6036755 58.77505275 51.62735767 55.69276851 48.625 52.625 C47.41118271 51.38573581 46.19514371 50.14864259 44.9765625 48.9140625 C44.45143066 48.3773291 43.92629883 47.8405957 43.38525391 47.28759766 C42.0089621 45.88723997 42.0089621 45.88723997 40 45 C40 44.34 40 43.68 40 43 C39.45053711 42.77723389 38.90107422 42.55446777 38.33496094 42.32495117 C35.29554627 40.60026449 33.05550615 38.28348674 30.640625 35.80078125 C30.1325531 35.28750778 29.6244812 34.77423431 29.10101318 34.2454071 C27.47916351 32.60580301 25.8641434 30.95968847 24.25 29.3125 C17.19353812 22.13315909 10.13804776 15.08259509 2.37573242 8.6550293 C0.9375 7.375 0.9375 7.375 -1 5 C-0.62109375 2.3515625 -0.62109375 2.3515625 0 0 Z " fill="#FCFDFD" transform="translate(887,534)"/>
<path d="M0 0 C15.18 0 30.36 0 46 0 C46.02505615 3.32698975 46.0501123 6.65397949 46.07592773 10.08178711 C46.15922091 21.04617756 46.24792969 32.0105193 46.33933926 42.97484493 C46.39461967 49.6257113 46.44804768 56.27657704 46.49731445 62.92749023 C46.54488271 69.3400679 46.5972225 75.75259015 46.65294075 82.16510201 C46.67339858 84.61762686 46.69210584 87.07016694 46.70907402 89.52271843 C46.7330424 92.94480801 46.76310694 96.3667917 46.79467773 99.78881836 C46.80331093 101.3262973 46.80331093 101.3262973 46.81211853 102.89483643 C46.82190735 103.82176804 46.83169617 104.74869965 46.84178162 105.70372009 C46.84823417 106.51397613 46.85468672 107.32423216 46.8613348 108.1590414 C46.80012985 110.01746284 46.80012985 110.01746284 48 111 C51.13489203 111.12542278 54.24879837 111.18613669 57.38500977 111.20532227 C58.86289474 111.22017166 58.86289474 111.22017166 60.37063599 111.23532104 C63.6442012 111.26703994 66.91778095 111.29173437 70.19140625 111.31640625 C72.45442595 111.33696682 74.71744173 111.35796304 76.98045349 111.37937927 C82.94974605 111.43469266 88.91907379 111.48406093 94.88842773 111.53222656 C100.97447864 111.5823741 107.06047816 111.6380953 113.14648438 111.69335938 C125.09761408 111.80105424 137.04878719 111.90195914 149 112 C149 124.54 149 137.08 149 150 C133.08367511 150.11296062 117.1676689 150.20502646 101.25105953 150.25906086 C93.86034205 150.28481923 86.4698917 150.31992388 79.0793457 150.37719727 C72.63611959 150.42710546 66.19308699 150.45930824 59.74967295 150.47044247 C56.33927452 150.4769489 52.92942956 150.49218977 49.51920891 150.52865028 C45.70770321 150.56494623 41.89734408 150.56994476 38.08569336 150.56762695 C36.3982325 150.59459152 36.3982325 150.59459152 34.67668152 150.62210083 C26.59323636 150.56891104 22.85543928 148.90393537 17.13671875 143.11328125 C16.65847656 142.51902344 16.18023437 141.92476562 15.6875 141.3125 C12.10330112 137.01960725 8.16532682 133.17124846 4.13671875 129.296875 C0.6870354 125.58862307 -0.25080408 122.89399932 -0.24050903 117.84942627 C-0.24325836 116.80898666 -0.24600769 115.76854706 -0.24884033 114.69657898 C-0.24164978 113.56081924 -0.23445923 112.42505951 -0.22705078 111.25488281 C-0.22748886 109.45447289 -0.22748886 109.45447289 -0.22793579 107.61769104 C-0.22678166 104.33077448 -0.21675501 101.04402847 -0.20278788 97.75714588 C-0.19028062 94.32050633 -0.18911002 90.88386339 -0.18673706 87.44720459 C-0.18052228 80.94139232 -0.16411149 74.43564731 -0.14403808 67.92986465 C-0.12167903 60.52242532 -0.11068564 53.11498277 -0.10064721 45.7075181 C-0.07974524 30.47163316 -0.04306905 15.23584086 0 0 Z " fill="#FDFDFE" transform="translate(343,534)"/>
<path d="M0 0 C0.8075473 -0.00845947 1.6150946 -0.01691895 2.44711304 -0.02563477 C3.32928497 -0.01956207 4.21145691 -0.01348938 5.12036133 -0.00723267 C6.51830429 -0.0151181 6.51830429 -0.0151181 7.94448853 -0.02316284 C11.03062613 -0.03638602 14.11624956 -0.02761646 17.20239258 -0.01748657 C19.34326273 -0.01950664 21.48413221 -0.02241751 23.625 -0.02618408 C28.11408025 -0.03061058 32.60298155 -0.02416581 37.09204102 -0.01016235 C42.85263818 0.0069296 48.61281606 -0.00290983 54.37339783 -0.02087975 C58.79483207 -0.03170871 63.21616655 -0.0282753 67.63760376 -0.02049637 C69.76193287 -0.01849191 71.88627098 -0.02096221 74.0105896 -0.02793503 C76.97711256 -0.03553482 79.94295192 -0.02396577 82.90942383 -0.00723267 C84.23268173 -0.01634171 84.23268173 -0.01634171 85.58267212 -0.02563477 C86.79399307 -0.01294556 86.79399307 -0.01294556 88.02978516 0 C88.73106033 0.00113108 89.43233551 0.00226215 90.15486145 0.00342751 C92.61160753 0.50206389 93.5040327 1.41140269 95.01489258 3.38095093 C95.38911438 6.34103394 95.38911438 6.34103394 95.38720703 10.00790405 C95.3908577 10.67651962 95.39450836 11.34513519 95.39826965 12.03401184 C95.40637424 14.24366676 95.39276667 16.4525881 95.37817383 18.66220093 C95.37765521 20.19772338 95.37817299 21.73324651 95.37968445 23.26876831 C95.37959473 26.48676466 95.36916625 29.70451046 95.35107422 32.92245483 C95.32838693 37.04859178 95.32784293 41.17436259 95.33459187 45.30054474 C95.3379324 48.47125506 95.3313002 51.64188182 95.32146263 54.81257629 C95.31761178 56.3340257 95.31646194 57.85548441 95.31804848 59.37693787 C95.3184191 61.50280486 95.30580048 63.62820144 95.28955078 65.7539978 C95.28263969 67.56909851 95.28263969 67.56909851 95.27558899 69.42086792 C95.01489258 72.38095093 95.01489258 72.38095093 93.01489258 75.38095093 C89.88590639 75.67757713 86.95480153 75.77968249 83.82348633 75.75326538 C82.87055695 75.75691605 81.91762756 75.76056671 80.93582153 75.764328 C77.77449929 75.77245798 74.61368569 75.75880298 71.45239258 75.74423218 C69.26285808 75.74371387 67.0733231 75.74423044 64.88378906 75.7457428 C60.29037549 75.74565296 55.69713702 75.73520084 51.10375977 75.71713257 C45.20522202 75.6944451 39.30694034 75.69390013 33.40837097 75.70065022 C28.88575958 75.70398599 24.36320695 75.69736749 19.84060669 75.68752098 C17.66521512 75.68366193 15.48981702 75.68252367 13.31442261 75.68410683 C10.27825384 75.68447621 7.24241779 75.67189302 4.20629883 75.65560913 C3.30025909 75.65808655 2.39421936 75.66056396 1.46072388 75.66311646 C-4.75636795 75.6096904 -4.75636795 75.6096904 -6.98510742 73.38095093 C-7.24580383 70.50315857 -7.24580383 70.50315857 -7.25976562 66.77572632 C-7.26487656 66.0975032 -7.26998749 65.41928009 -7.2752533 64.72050476 C-7.2891809 62.4731164 -7.28819016 60.22603363 -7.28588867 57.97860718 C-7.28977399 56.41923406 -7.29410832 54.85986201 -7.2988739 53.30049133 C-7.306343 50.02950615 -7.30603997 46.75862888 -7.30078125 43.48764038 C-7.29498689 39.29302895 -7.31191312 35.09885912 -7.33512592 30.90432072 C-7.34984861 27.68300284 -7.35073696 24.46179165 -7.3476162 21.24044609 C-7.34813019 19.69386356 -7.35338258 18.14727517 -7.36342812 16.60072517 C-7.37574678 14.43871394 -7.36902925 12.27756716 -7.35742188 10.11557007 C-7.3580513 8.88472183 -7.35868073 7.6538736 -7.35932922 6.38572693 C-6.98510742 3.38095093 -6.98510742 3.38095093 -5.71078777 1.71696186 C-3.62197678 0.09981745 -2.61658167 0.00422025 0 0 Z " fill="#16158B" transform="translate(553.985107421875,570.6190490722656)"/>
<path d="M0 0 C12.87344904 -0.06767463 25.74678067 -0.12275756 38.62036705 -0.15543652 C44.59756432 -0.17111775 50.57463399 -0.19240083 56.55175781 -0.22631836 C62.31592698 -0.25882417 68.07997312 -0.27683448 73.84422684 -0.28463173 C76.04755211 -0.29019105 78.25087038 -0.30104645 80.45414352 -0.31719017 C83.53126529 -0.33884769 86.60787336 -0.34197182 89.68505859 -0.34057617 C90.60359116 -0.351362 91.52212372 -0.36214783 92.4684906 -0.3732605 C93.30424118 -0.36913651 94.13999176 -0.36501251 95.00106812 -0.36076355 C95.72928457 -0.36352893 96.45750103 -0.36629431 97.20778465 -0.36914349 C99 0 99 0 101 3 C101.3874302 7.42738019 101.32917156 11.86389873 101.31567383 16.30615234 C101.31251104 18.49236769 101.33598905 20.67723292 101.36132812 22.86328125 C101.36360094 24.25260246 101.3643047 25.64192731 101.36328125 27.03125 C101.36626221 28.29517578 101.36924316 29.55910156 101.37231445 30.86132812 C101 34 101 34 99.73180676 35.67361927 C97.61158911 37.29748164 96.56649475 37.37093404 93.91877747 37.36076355 C93.09006638 37.36488754 92.26135529 37.36901154 91.40753174 37.3732605 C90.50194519 37.36247467 89.59635864 37.35168884 88.66333008 37.34057617 C87.70704208 37.34101425 86.75075409 37.34145233 85.76548767 37.34190369 C82.59996223 37.3398112 79.43496433 37.31645816 76.26953125 37.29296875 C74.07663767 37.28737444 71.88374034 37.28310356 69.69084167 37.28010559 C63.91543246 37.26864387 58.1402491 37.23916511 52.3649292 37.20599365 C46.47313492 37.17532146 40.5813042 37.16160635 34.68945312 37.14648438 C23.12618682 37.11429677 11.56314751 37.06151785 0 37 C0 24.79 0 12.58 0 0 Z " fill="#16158B" transform="translate(752,568)"/>
<path d="M0 0 C0.10091475 2.58189446 0.13971499 5.136465 0.1328125 7.71875 C0.13376923 8.49182495 0.13472595 9.2648999 0.13571167 10.06140137 C0.13639341 11.69897544 0.13453957 13.33655219 0.13037109 14.97412109 C0.12502271 17.48931921 0.13031626 20.00433873 0.13671875 22.51953125 C0.13605797 24.10677123 0.1347768 25.6940111 0.1328125 27.28125 C0.13483673 28.03853394 0.13686096 28.79581787 0.13894653 29.5760498 C0.11495132 34.88504868 0.11495132 34.88504868 -1 36 C-2.77122886 36.10854981 -4.54678859 36.14687445 -6.32130432 36.15821838 C-8.05247498 36.17290161 -8.05247498 36.17290161 -9.81861877 36.18788147 C-11.73480263 36.19651466 -11.73480263 36.19651466 -13.68969727 36.20532227 C-15.03958439 36.21489564 -16.38946848 36.22490539 -17.73934937 36.23532104 C-21.41477343 36.26243483 -25.09021042 36.28340921 -28.7656796 36.30332303 C-32.60275729 36.3251428 -36.43979485 36.35255104 -40.27684021 36.37937927 C-47.54768307 36.42936054 -54.81854814 36.47427913 -62.08943456 36.51740164 C-70.36502202 36.56672767 -78.64056923 36.62166293 -86.91611779 36.67708123 C-103.94404134 36.79098466 -120.97200223 36.8978054 -138 37 C-139.46854 39.93708001 -139.13019549 42.89343705 -139.11352539 46.11181641 C-139.11367142 46.84362625 -139.11381744 47.5754361 -139.1139679 48.329422 C-139.11327003 50.75349876 -139.10548354 53.17749912 -139.09765625 55.6015625 C-139.09579162 57.28022215 -139.09436793 58.95888234 -139.09336853 60.63754272 C-139.08954688 65.05987038 -139.07971959 69.48216528 -139.06866455 73.90447998 C-139.05844286 78.41548215 -139.05386928 82.92648959 -139.04882812 87.4375 C-139.03809702 96.29168107 -139.02102481 105.14583781 -139 114 C-136.07928298 114.83820643 -133.4914602 115.12381627 -130.45684814 115.12025452 C-129.551035 115.12162918 -128.64522186 115.12300385 -127.71195984 115.12442017 C-126.72581192 115.12082489 -125.739664 115.11722961 -124.72363281 115.11352539 C-123.67941666 115.11367142 -122.6352005 115.11381744 -121.55934143 115.1139679 C-118.10724817 115.11327113 -114.65520884 115.10548973 -111.203125 115.09765625 C-108.80987579 115.09579123 -106.41662619 115.09436772 -104.02337646 115.09336853 C-97.72364244 115.08954996 -91.42393146 115.07972527 -85.12420654 115.06866455 C-78.69608878 115.05843627 -72.2679673 115.05386787 -65.83984375 115.04882812 C-53.22655267 115.03810244 -40.61327756 115.02122606 -28 115 C-28.33 115.66 -28.66 116.32 -29 117 C-43.30766136 117.04668014 -57.61531094 117.08183637 -71.92303276 117.10362434 C-78.56606556 117.11407935 -85.20904735 117.1282698 -91.85205078 117.15087891 C-98.2581139 117.17254614 -104.66412784 117.18455568 -111.07022476 117.18975449 C-113.51915385 117.19346127 -115.96808012 117.20069925 -118.41698837 117.21146011 C-121.83648329 117.22589367 -125.25577269 117.22798136 -128.67529297 117.22705078 C-129.69668365 117.23424133 -130.71807434 117.24143188 -131.77041626 117.24884033 C-133.16287567 117.24471634 -133.16287567 117.24471634 -134.58346558 117.24050903 C-135.39279982 117.24235262 -136.20213406 117.24419621 -137.03599358 117.24609566 C-139 117 -139 117 -141 115 C-141.19304165 112.4757567 -141.26235759 110.06172477 -141.24291992 107.53686523 C-141.24481827 106.7676474 -141.24671661 105.99842957 -141.24867249 105.2059021 C-141.25238513 102.6566965 -141.2416701 100.10777414 -141.23046875 97.55859375 C-141.22927722 95.79264866 -141.22882373 94.02670292 -141.2290802 92.26075745 C-141.22751454 88.55766846 -141.21921797 84.85467603 -141.20581055 81.15161133 C-141.18880817 76.39420442 -141.18499651 71.6369036 -141.18575573 66.87946987 C-141.18548442 63.23276244 -141.18000966 59.58607841 -141.17275429 55.93937874 C-141.16956228 54.18461344 -141.16759898 52.42984548 -141.16686058 50.67507744 C-141.16470333 48.22791862 -141.15597292 45.78087458 -141.14526367 43.33374023 C-141.14571686 42.60176926 -141.14617004 41.86979828 -141.14663696 41.11564636 C-141.11447497 36.11447497 -141.11447497 36.11447497 -140 35 C-138.21572813 34.90363162 -136.42760347 34.87812547 -134.64073181 34.87974548 C-133.47820389 34.87837082 -132.31567596 34.87699615 -131.11791992 34.87557983 C-129.83111328 34.87917511 -128.54430664 34.88277039 -127.21850586 34.88647461 C-125.85876976 34.88675648 -124.4990335 34.88659875 -123.13929749 34.8860321 C-119.43698222 34.88574413 -115.73469908 34.89164088 -112.03239131 34.89860606 C-108.16731219 34.90483957 -104.30223242 34.9054434 -100.43714905 34.90663147 C-93.11315318 34.90974479 -85.78917216 34.9179582 -78.46518284 34.92798096 C-70.12916552 34.93914206 -61.79314751 34.94465254 -53.45712459 34.94967639 C-36.30473965 34.96014081 -19.15237518 34.9784863 -2 35 C-2 23.45 -2 11.9 -2 0 C-53.15 0 -104.3 0 -157 0 C-157 -0.33 -157 -0.66 -157 -1 C-137.25078776 -1.15389239 -117.50153992 -1.30192594 -97.7522316 -1.4429636 C-88.58251913 -1.50858512 -79.41282836 -1.5761318 -70.24316406 -1.64819336 C-62.25192231 -1.7109892 -54.26066345 -1.77019049 -46.26936316 -1.82505554 C-42.03711666 -1.8542385 -37.80490078 -1.88523484 -33.5727005 -1.92053413 C-29.59030591 -1.95369313 -25.60790617 -1.98205058 -21.62545013 -2.00670624 C-20.16291494 -2.01661083 -18.70039047 -2.0282782 -17.23788452 -2.04183006 C-15.24246931 -2.06005754 -13.24699437 -2.07135439 -11.25152588 -2.08229065 C-10.13431278 -2.09058679 -9.01709969 -2.09888292 -7.86603165 -2.10743046 C-1.88316855 -1.88316855 -1.88316855 -1.88316855 0 0 Z " fill="#1B1870" transform="translate(309,533)"/>
<path d="M0 0 C12.44774677 -0.04630811 24.8954731 -0.08186148 37.34328842 -0.10362434 C43.12309559 -0.11406857 48.9028439 -0.12823952 54.68261719 -0.15087891 C60.25875682 -0.17258436 65.83483976 -0.18456381 71.41101837 -0.18975449 C73.54011172 -0.19345436 75.66920191 -0.20067915 77.79827118 -0.21146011 C80.77671553 -0.22594439 83.75492463 -0.22797921 86.73339844 -0.22705078 C88.05833313 -0.23783661 88.05833313 -0.23783661 89.41003418 -0.24884033 C90.22329163 -0.246091 91.03654907 -0.24334167 91.87445068 -0.24050903 C92.93082544 -0.24327441 92.93082544 -0.24327441 94.00854111 -0.24609566 C96.33932892 0.04193276 97.96777485 0.85103264 100 2 C100.07418046 6.35990873 100.12861544 10.71948279 100.16479492 15.07983398 C100.17987768 16.56297199 100.20034689 18.04606544 100.22631836 19.52905273 C100.26272616 21.66140745 100.27973073 23.79317235 100.29296875 25.92578125 C100.3086792 27.20880127 100.32438965 28.49182129 100.34057617 29.8137207 C100 33 100 33 98.7337904 34.67659473 C96.612267 36.29595728 95.56501672 36.37092836 92.91877747 36.36076355 C92.09006638 36.36488754 91.26135529 36.36901154 90.40753174 36.3732605 C89.50194519 36.36247467 88.59635864 36.35168884 87.66333008 36.34057617 C86.70704208 36.34101425 85.75075409 36.34145233 84.76548767 36.34190369 C81.59996223 36.3398112 78.43496433 36.31645816 75.26953125 36.29296875 C73.07663767 36.28737444 70.88374034 36.28310356 68.69084167 36.28010559 C62.91543246 36.26864387 57.1402491 36.23916511 51.3649292 36.20599365 C45.47313492 36.17532146 39.5813042 36.16160635 33.68945312 36.14648438 C22.12620278 36.11429681 10.56312016 36.06308431 -1 36 C-0.67 35.34 -0.34 34.68 0 34 C32.01 34 64.02 34 97 34 C98.38979311 17.43584637 98.38979311 17.43584637 95 2 C63.65 1.67 32.3 1.34 0 1 C0 0.67 0 0.34 0 0 Z " fill="#2A2682" transform="translate(753,569)"/>
<path d="M0 0 C31.68 0 63.36 0 96 0 C96 0.33 96 0.66 96 1 C94.92560165 1.01030746 93.85120331 1.02061493 92.74424744 1.03123474 C82.60694956 1.12909493 72.46971133 1.23184061 62.33251095 1.33933926 C57.12119025 1.39444583 51.90986383 1.44784582 46.69848633 1.49731445 C41.66693471 1.54513941 36.63544843 1.59748801 31.6039753 1.65294075 C29.6867187 1.67328239 27.76944424 1.69200858 25.85215569 1.70907402 C23.16170697 1.73330025 20.47137973 1.76332868 17.78100586 1.79467773 C16.99265854 1.8004332 16.20431122 1.80618866 15.39207458 1.81211853 C14.65042053 1.82190735 13.90876648 1.83169617 13.14463806 1.84178162 C12.5095227 1.84823417 11.87440733 1.85468672 11.22004604 1.8613348 C8.12937172 2.05437988 5.06557392 2.56206087 2 3 C2 25.77 2 48.54 2 72 C33.68 72.33 65.36 72.66 98 73 C98 73.33 98 73.66 98 74 C85.38732773 74.04626405 72.77467552 74.08183895 60.16193581 74.10362434 C54.30584347 74.11407824 48.44980902 74.12826667 42.59375 74.15087891 C36.94629723 74.1725501 31.29890028 74.18455651 25.65140915 74.18975449 C23.49275203 74.19346056 21.3340981 74.20069719 19.17546463 74.21146011 C16.1606909 74.22589897 13.14615019 74.22798114 10.13134766 74.22705078 C9.23151657 74.23424133 8.33168549 74.24143188 7.40458679 74.24884033 C1.22810432 74.22810432 1.22810432 74.22810432 -1 72 C-1.24723816 69.11547852 -1.24723816 69.11547852 -1.24291992 65.37890625 C-1.24481827 64.69907684 -1.24671661 64.01924744 -1.24867249 63.31881714 C-1.25238395 61.06659494 -1.24167092 58.81469365 -1.23046875 56.5625 C-1.22927702 55.00073281 -1.22882377 53.43896489 -1.2290802 51.87719727 C-1.22751469 48.60200522 -1.21922002 45.32692238 -1.20581055 42.05175781 C-1.1888206 37.84822141 -1.18499618 33.64480511 -1.18575573 29.4412384 C-1.18548412 26.21568652 -1.18000438 22.99016103 -1.17275429 19.76461792 C-1.16956644 18.21442871 -1.16759994 16.6642365 -1.16686058 15.11404419 C-1.16469824 12.94967531 -1.15595633 10.7854351 -1.14526367 8.62109375 C-1.14145187 7.3880249 -1.13764008 6.15495605 -1.13371277 4.88452148 C-1 2 -1 2 0 0 Z " fill="#1B1771" transform="translate(548,572)"/>
<path d="M0 0 C0.66 0.66 1.32 1.32 2 2 C3.9368613 2.3293538 3.9368613 2.3293538 6.17431641 2.31884766 C7.46542831 2.34865219 7.46542831 2.34865219 8.78262329 2.37905884 C9.71287323 2.39061005 10.64312317 2.40216125 11.6015625 2.4140625 C13.02896255 2.44311172 13.02896255 2.44311172 14.48519897 2.4727478 C17.53170747 2.53264132 20.57825354 2.57896795 23.625 2.625 C25.6875167 2.66317079 27.7500173 2.70222198 29.8125 2.7421875 C34.87486966 2.83835086 39.93731395 2.92234563 45 3 C45 3.33 45 3.66 45 4 C29.82 4 14.64 4 -1 4 C-0.95969479 19.93376195 -0.90292158 35.86719162 -0.81609726 51.80075264 C-0.77630975 59.19920331 -0.74391587 66.59754767 -0.72900391 73.99609375 C-0.7159858 80.44565626 -0.6890174 86.89498481 -0.64538693 93.34441555 C-0.62277528 96.75851975 -0.60708911 100.17233542 -0.60811615 103.58652115 C-0.6057548 107.40064957 -0.5787393 111.21386127 -0.54589844 115.02783203 C-0.55344398 116.72068581 -0.55344398 116.72068581 -0.56114197 118.44773865 C-0.47868178 124.63064131 -0.10461369 128.2779353 4 133 C4.84304688 134.04800781 4.84304688 134.04800781 5.703125 135.1171875 C6.21359375 135.69726562 6.7240625 136.27734375 7.25 136.875 C7.77078125 137.47054687 8.2915625 138.06609375 8.828125 138.6796875 C9.40820312 139.33324219 9.40820312 139.33324219 10 140 C7.12333727 138.66938508 4.78863364 137.17712023 2.375 135.125 C1.78460938 134.63257813 1.19421875 134.14015625 0.5859375 133.6328125 C-2.62138917 130.330688 -3.25044089 127.36216671 -3.26069641 122.83837891 C-3.26778122 121.79530579 -3.27486603 120.75223267 -3.28216553 119.67755127 C-3.27968811 118.53872498 -3.27721069 117.39989868 -3.2746582 116.2265625 C-3.27976913 115.02296082 -3.28488007 113.81935913 -3.29014587 112.57928467 C-3.30166359 109.28175453 -3.30411569 105.98447576 -3.30158257 102.68694305 C-3.30051246 99.9333663 -3.30539714 97.17981271 -3.310188 94.42624092 C-3.32127963 87.93062734 -3.32172224 81.43507159 -3.31567383 74.93945312 C-3.30963048 68.2388002 -3.32195483 61.53835707 -3.3432439 54.83773994 C-3.36085508 49.08306604 -3.36686212 43.32845895 -3.36360615 37.57375908 C-3.3617927 34.13743255 -3.36443567 30.70125574 -3.37832069 27.26495361 C-3.39322023 23.43436429 -3.38393313 19.6040427 -3.37231445 15.7734375 C-3.37995819 14.63461121 -3.38760193 13.49578491 -3.39547729 12.32244873 C-3.38846298 11.27937561 -3.38144867 10.23630249 -3.3742218 9.16162109 C-3.37438954 8.2560849 -3.37455729 7.35054871 -3.37473011 6.41757202 C-2.92999706 3.54837587 -1.89725304 2.15523889 0 0 Z " fill="#262474" transform="translate(344,530)"/>
<path d="M0 0 C0.33 0 0.66 0 1 0 C1.11584636 9.18806103 1.20469056 18.37587073 1.25906086 27.56450272 C1.28515599 31.83118737 1.32055148 36.09737243 1.37719727 40.36376953 C1.43152161 44.4810858 1.46142117 48.59792155 1.47438622 52.71556854 C1.48362549 54.28651241 1.50166814 55.85742994 1.52865028 57.42816925 C1.56494946 59.6287977 1.56994547 61.82744069 1.56762695 64.02832031 C1.57873001 65.28074524 1.58983307 66.53317017 1.60127258 67.82354736 C1 71 1 71 -1.37141418 73.34588623 C-3.0911623 74.42808755 -4.84281176 75.46153977 -6.625 76.4375 C-9.39901939 78.26251276 -10.38251731 80.15014954 -12 83 C-12.66 83 -13.32 83 -14 83 C-14.3403125 84.11375 -14.3403125 84.11375 -14.6875 85.25 C-16.28723957 88.6018353 -17.90194431 89.98266141 -21 92 C-24.76457466 92.99016669 -28.33819502 93.13517164 -32.21992493 93.15821838 C-33.47209305 93.1680072 -34.72426117 93.17779602 -36.01437378 93.18788147 C-37.39410362 93.19378485 -38.77383387 93.19959535 -40.15356445 93.20532227 C-41.61241429 93.21490669 -43.07126137 93.22491711 -44.53010559 93.23532104 C-48.48421127 93.26231499 -52.43832881 93.28335432 -56.39247537 93.30332303 C-60.52714964 93.32521664 -64.66178757 93.3525888 -68.7964325 93.37937927 C-76.62317485 93.42926056 -84.44993742 93.4742163 -92.27671927 93.51740164 C-101.18841879 93.56681304 -110.10008183 93.62171668 -119.01174605 93.67708123 C-137.34113014 93.79083121 -155.67054869 93.89768542 -174 94 C-174 93.34 -174 92.68 -174 92 C-172.87189816 91.99780016 -172.87189816 91.99780016 -171.72100639 91.99555588 C-153.41776134 91.95849704 -135.11470729 91.89949461 -116.81161308 91.81609726 C-107.96034315 91.77629542 -99.10916226 91.74390876 -90.2578125 91.72900391 C-82.54256474 91.7159933 -74.82751284 91.68904384 -67.11237538 91.64538693 C-63.0275861 91.62275869 -58.94303851 91.60709013 -54.858181 91.60811615 C-51.01178248 91.60886197 -47.16591849 91.59094319 -43.31965828 91.55883217 C-41.90960312 91.55032743 -40.49948805 91.5485872 -39.08941841 91.55419731 C-29.18750052 91.79086237 -29.18750052 91.79086237 -21 87 C-20.31147949 86.4021167 -19.62295898 85.8042334 -18.91357422 85.18823242 C-16.89267101 83.19572909 -14.87711696 81.19890322 -12.875 79.1875 C-12.17246094 78.50107422 -11.46992188 77.81464844 -10.74609375 77.10742188 C-10.06417969 76.42615234 -9.38226563 75.74488281 -8.6796875 75.04296875 C-8.06851074 74.43477295 -7.45733398 73.82657715 -6.82763672 73.19995117 C-0.41027029 65.47527993 -0.39654509 59.14965701 -0.390625 49.31640625 C-0.3756272 47.89149612 -0.3588967 46.46660328 -0.34051514 45.04173279 C-0.29700796 41.31160642 -0.27687993 37.58171448 -0.26177979 33.85137939 C-0.24214818 30.03684726 -0.20018525 26.22256609 -0.16015625 22.40820312 C-0.08503475 14.93886983 -0.03463461 7.46964247 0 0 Z " fill="#1C1A6F" transform="translate(325,592)"/>
<path d="M0 0 C4.00087999 1.33362666 6.09283814 3.00198933 9 6 C10.3303125 6.7425 10.3303125 6.7425 11.6875 7.5 C14 9 14 9 14.63743591 10.82292843 C15.00659418 13.03959577 15.1202251 15.08664696 15.11352539 17.33314514 C15.1134549 18.19255203 15.1133844 19.05195892 15.11331177 19.93740845 C15.10814545 20.87208954 15.10297913 21.80677063 15.09765625 22.76977539 C15.09619598 23.76040482 15.09473572 24.75103424 15.0932312 25.77168274 C15.08942701 27.92152975 15.08331233 30.07137363 15.07516479 32.22120857 C15.06241372 35.62065889 15.05588892 39.02007025 15.05102539 42.41954041 C15.03959106 49.63387774 15.02034461 56.84818301 15 64.0625 C14.97643135 72.42451688 14.95603122 80.78651544 14.94406128 89.14855766 C14.9375627 92.50279556 14.92505525 95.85697758 14.91235352 99.2111969 C14.90872205 101.26067048 14.90537019 103.31014458 14.90234375 105.35961914 C14.89717743 106.29632446 14.89201111 107.23302979 14.88668823 108.19812012 C14.88661774 109.05470718 14.88654724 109.91129425 14.88647461 110.7938385 C14.88314369 111.91017213 14.88314369 111.91017213 14.87974548 113.04905796 C14.92940635 115.21699143 14.92940635 115.21699143 16 118 C13.5 119.5 13.5 119.5 11 121 C10.113125 121.5775 9.22625 122.155 8.3125 122.75 C7.549375 123.1625 6.78625 123.575 6 124 C5.34 123.67 4.68 123.34 4 123 C4.49371094 122.51789063 4.98742187 122.03578125 5.49609375 121.5390625 C6.13675781 120.90742187 6.77742187 120.27578125 7.4375 119.625 C8.07558594 118.99851562 8.71367188 118.37203125 9.37109375 117.7265625 C11.84050935 115.1091004 12.12569376 113.48500321 12.13371277 109.99002075 C12.13797775 109.15163666 12.14224274 108.31325256 12.14663696 107.44946289 C12.14618378 106.52786377 12.14573059 105.60626465 12.14526367 104.65673828 C12.14862228 103.68751434 12.1519809 102.71829041 12.15544128 101.71969604 C12.16497045 98.50322196 12.16689542 95.28679983 12.16796875 92.0703125 C12.1711801 89.84072854 12.17454408 87.61114479 12.17805481 85.38156128 C12.1840511 80.70244864 12.18589421 76.02335449 12.18530273 71.34423828 C12.18520111 65.34279141 12.19885094 59.34146285 12.21607494 53.34004402 C12.22718345 48.73330133 12.22922229 44.12658733 12.22869301 39.51983261 C12.22987495 37.30701159 12.23430868 35.09418987 12.24202538 32.88138199 C12.25180146 29.78818689 12.24895651 26.69524986 12.24291992 23.60205078 C12.24853943 22.68450012 12.25415894 21.76694946 12.25994873 20.82159424 C12.25575424 19.9775705 12.25155975 19.13354675 12.24723816 18.26394653 C12.24778293 17.53279696 12.24832769 16.80164738 12.24888897 16.04834175 C11.70187061 11.54641245 9.39307355 9.2255586 6 6.4375 C3.44227537 4.32643684 1.866865 2.80029749 0 0 Z " fill="#2F2C83" transform="translate(679,544)"/>
<path d="M0 0 C1.06272125 -0.00708481 2.1254425 -0.01416962 3.22036743 -0.02146912 C4.95362274 -0.01775299 4.95362274 -0.01775299 6.72189331 -0.01396179 C8.55918503 -0.02162819 8.55918503 -0.02162819 10.43359375 -0.02944946 C13.78471361 -0.04095498 17.13558588 -0.04342146 20.48670816 -0.04088616 C23.2851651 -0.0398153 26.08359929 -0.04470244 28.88205135 -0.04949158 C35.48167751 -0.06057618 42.08124673 -0.06102916 48.68087769 -0.05497742 C55.49120113 -0.04892869 62.30131844 -0.06127367 69.11160672 -0.08254749 C74.96055167 -0.10014696 80.8094309 -0.10616774 86.65840137 -0.10290974 C90.15113045 -0.10109511 93.64371227 -0.10375138 97.13641739 -0.11762428 C101.02697144 -0.13250064 104.91726119 -0.12324705 108.80783081 -0.11161804 C109.96738281 -0.11926178 111.12693481 -0.12690552 112.32162476 -0.13478088 C113.37870636 -0.12776657 114.43578796 -0.12075226 115.52490234 -0.11352539 C116.4448102 -0.11369313 117.36471806 -0.11386087 118.31250191 -0.1140337 C121.05155882 0.32781834 121.93027629 1.12794494 123.63546753 3.26069641 C122.97546753 3.59069641 122.31546753 3.92069641 121.63546753 4.26069641 C120.64546753 3.76569641 120.64546753 3.76569641 119.63546753 3.26069641 C117.97202543 3.16355432 116.30470113 3.13001187 114.63842773 3.12698364 C113.05269958 3.12058617 113.05269958 3.12058617 111.43493652 3.11405945 C110.2702182 3.11451263 109.10549988 3.11496582 107.90548706 3.11543274 C106.68267029 3.11207413 105.45985352 3.10871552 104.19998169 3.10525513 C100.84041563 3.09736691 97.48091136 3.0940766 94.12134027 3.09343934 C91.31816395 3.09249074 88.51499357 3.08881295 85.71181953 3.08526725 C79.09831242 3.07711889 72.48481893 3.07468333 65.87130737 3.07539368 C59.0469129 3.07599436 52.2225975 3.06544537 45.39822304 3.04965001 C39.5416893 3.03657731 33.68518141 3.03120968 27.82863319 3.03184909 C24.32970838 3.03210418 20.8308538 3.02924663 17.33194351 3.01867104 C13.42934323 3.00719786 9.52685148 3.01173524 5.62423706 3.01777649 C4.4635672 3.01215698 3.30289734 3.00653748 2.10705566 3.00074768 C1.04426392 3.00494217 -0.01852783 3.00913666 -1.11352539 3.01345825 C-2.03640791 3.01291348 -2.95929043 3.01236872 -3.91013908 3.01180744 C-6.49936055 3.27436872 -8.13740481 3.94911763 -10.36453247 5.26069641 C-10.36453247 4.27069641 -10.36453247 3.28069641 -10.36453247 2.26069641 C-6.76032088 0.6228441 -3.94989589 0.00880738 0 0 Z " fill="#3F3E8A" transform="translate(742.3645324707031,531.7393035888672)"/>
<path d="M0 0 C12.46499754 -0.06942929 24.92994927 -0.12277531 37.39510059 -0.15543652 C43.18282195 -0.17111015 48.97041128 -0.1923795 54.75805664 -0.22631836 C60.34068288 -0.2588511 65.92318192 -0.27684021 71.50589561 -0.28463173 C73.63861787 -0.29018618 75.77133296 -0.30103229 77.90400124 -0.31719017 C80.88512997 -0.33888342 83.86572921 -0.34197031 86.84692383 -0.34057617 C87.7338089 -0.351362 88.62069397 -0.36214783 89.53445435 -0.3732605 C90.75227852 -0.36707451 90.75227852 -0.36707451 91.9947052 -0.36076355 C92.69987683 -0.36352893 93.40504847 -0.36629431 94.13158894 -0.36914349 C96.59970685 0.11848457 97.48689894 1.02126865 99 3 C99.36076355 5.98027039 99.36076355 5.98027039 99.34057617 9.67456055 C99.34123329 10.68471222 99.34123329 10.68471222 99.34190369 11.715271 C99.33981501 13.93938269 99.3164815 16.16273888 99.29296875 18.38671875 C99.28737305 19.92942391 99.28310283 21.4721344 99.28010559 23.0148468 C99.26865471 27.07397191 99.23918569 31.13277466 99.20599365 35.19177246 C99.17529787 39.33418415 99.16160132 43.47664797 99.14648438 47.61914062 C99.114316 55.74624164 99.06311698 63.87308071 99 72 C97.515 72.495 97.515 72.495 96 73 C95.67 71.68 95.34 70.36 95 69 C95.66 69 96.32 69 97 69 C96.67 46.89 96.34 24.78 96 2 C64.32 1.67 32.64 1.34 0 1 C0 0.67 0 0.34 0 0 Z " fill="#424183" transform="translate(550,571)"/>
<path d="M0 0 C2.88198773 1.17414315 4.30670069 2.32203572 6.5 4.625 C8.90861986 7.45916631 8.90861986 7.45916631 13 7 C13.99 7 14.98 7 16 7 C16 5.35 16 3.7 16 2 C20.09136774 2.52126133 22.10316197 3.58115052 25.06640625 6.421875 C25.79923828 7.11796875 26.53207031 7.8140625 27.28710938 8.53125 C28.03798828 9.2634375 28.78886719 9.995625 29.5625 10.75 C30.31724609 11.46671875 31.07199219 12.1834375 31.84960938 12.921875 C35.51044981 16.43112116 38.96882341 19.91554985 42 24 C40.35 23.67 38.7 23.34 37 23 C37 22.01 37 21.02 37 20 C35.68 20 34.36 20 33 20 C33 19.01 33 18.02 33 17 C32.01 17.33 31.02 17.66 30 18 C27.8125 16.5625 27.8125 16.5625 26 15 C25.01 15.495 25.01 15.495 24 16 C24 15.34 24 14.68 24 14 C21.24358584 14.49756092 21.24358584 14.49756092 19 16 C20.32 16.99 21.64 17.98 23 19 C22.34 19 21.68 19 21 19 C20.67 19.66 20.34 20.32 20 21 C17.14852788 18.17317491 14.30029574 15.34313037 11.45507812 12.51000977 C10.48592079 11.54589335 9.51586952 10.58267471 8.54492188 9.62036133 C7.15262088 8.24013641 5.7637538 6.85645022 4.375 5.47265625 C3.53710938 4.64000244 2.69921875 3.80734863 1.8359375 2.94946289 C0 1 0 1 0 0 Z M22 9 C21.67 10.32 21.34 11.64 21 13 C21.66 11.68 22.32 10.36 23 9 C22.67 9 22.34 9 22 9 Z " fill="#17158F" transform="translate(870,540)"/>
<path d="M0 0 C0.33 0 0.66 0 1 0 C1.01030746 1.30656555 1.02061493 2.6131311 1.03123474 3.95928955 C1.12890881 16.26078841 1.23163727 28.56223601 1.33933926 40.86365128 C1.39454929 47.18821719 1.44796633 53.51278775 1.49731445 59.83740234 C1.54498617 65.93876961 1.59733017 72.04008041 1.65294075 78.14138031 C1.67335154 80.47140856 1.69206673 82.80145229 1.70907402 85.13150787 C1.7331461 88.39013778 1.7631971 91.64866099 1.79467773 94.90722656 C1.8004332 95.874673 1.80618866 96.84211945 1.81211853 97.83888245 C1.82190735 98.72786728 1.83169617 99.61685211 1.84178162 100.53277588 C1.84823417 101.30339481 1.85468672 102.07401375 1.8613348 102.86798477 C1.95823619 105.34028064 1.95823619 105.34028064 3 109 C35.67 109.33 68.34 109.66 102 110 C102 110.33 102 110.66 102 111 C88.99617583 111.04626277 75.99237111 111.0818383 62.98848152 111.10362434 C56.95078762 111.11407853 50.91314986 111.12826747 44.87548828 111.15087891 C39.0529716 111.17254909 33.23050905 111.1845563 27.40795517 111.18975449 C25.18231224 111.19346074 22.95667239 111.20069771 20.7310524 111.21146011 C17.62288165 111.22589763 14.51493695 111.2279812 11.40673828 111.22705078 C10.47885498 111.23424133 9.55097168 111.24143188 8.5949707 111.24884033 C7.75080597 111.246091 6.90664124 111.24334167 6.03689575 111.24050903 C5.30130495 111.24235262 4.56571415 111.24419621 3.80783272 111.24609566 C2 111 2 111 0 109 C-0.24609566 107.05161095 -0.24609566 107.05161095 -0.24050903 104.62142944 C-0.24325836 103.70153732 -0.24600769 102.7816452 -0.24884033 101.83387756 C-0.24164978 100.82183762 -0.23445923 99.80979767 -0.22705078 98.76708984 C-0.22734283 97.7036586 -0.22763489 96.64022736 -0.22793579 95.54457092 C-0.22653835 92.01661116 -0.21095756 88.48886053 -0.1953125 84.9609375 C-0.19158385 82.51999019 -0.18873618 80.07904138 -0.18673706 77.63809204 C-0.17908899 71.2034901 -0.15943041 64.76897799 -0.1373291 58.33441162 C-0.11689594 51.77243261 -0.10774076 45.21043913 -0.09765625 38.6484375 C-0.07618564 25.7655866 -0.04241826 12.88279807 0 0 Z " fill="#1C186B" transform="translate(389,535)"/>
<path d="M0 0 C26.4 0 52.8 0 80 0 C80 7.59 80 15.18 80 23 C79.67 23 79.34 23 79 23 C78.67 16.4 78.34 9.8 78 3 C75.81479736 3.00523682 73.62959473 3.01047363 71.37817383 3.01586914 C64.1537897 3.03244778 56.92940472 3.04348837 49.7050066 3.05181217 C45.32538152 3.05702808 40.94577596 3.0641023 36.56616211 3.07543945 C32.3386637 3.08631421 28.11118404 3.09228658 23.88367271 3.09487724 C22.27176302 3.09672321 20.65985435 3.10032792 19.04795265 3.10573006 C16.78821224 3.11300136 14.52854908 3.11398837 12.26879883 3.11352539 C10.34019768 3.11685631 10.34019768 3.11685631 8.37263489 3.12025452 C5.44143305 3.01573972 2.84321158 2.68506242 0 2 C0 1.34 0 0.68 0 0 Z " fill="#1B196B" transform="translate(202,625)"/>
<path d="M0 0 C0.8125 1.6875 0.8125 1.6875 1 4 C-1.73772654 7.36349261 -3.72964248 9.29182809 -8 10 C-9.94302886 10.08873947 -11.88886991 10.12198499 -13.83392334 10.12025452 C-15.02581772 10.12162918 -16.2177121 10.12300385 -17.44572449 10.12442017 C-19.40183403 10.11902725 -19.40183403 10.11902725 -21.39746094 10.11352539 C-22.78719582 10.11324326 -24.17693085 10.11340176 -25.56666565 10.1139679 C-29.33698276 10.11425486 -33.10726806 10.10837442 -36.87757778 10.10139394 C-40.81871314 10.09514362 -44.75984922 10.09455527 -48.70098877 10.09336853 C-56.1630069 10.09026017 -63.62501039 10.08205344 -71.08702207 10.07201904 C-79.582719 10.06084254 -88.07841663 10.05534358 -96.57411909 10.05032361 C-114.0494212 10.03987043 -131.52470905 10.02228056 -149 10 C-149.66 8.35 -150.32 6.7 -151 5 C-150.2795752 5.48666641 -149.55915039 5.97333282 -148.81689453 6.4747467 C-143.57304564 9.06780821 -137.63957125 8.42476994 -131.9296875 8.40405273 C-129.9531015 8.41434761 -129.9531015 8.41434761 -127.93658447 8.42485046 C-124.33327511 8.44275341 -120.73020964 8.44161917 -117.1268692 8.43590808 C-114.1148981 8.43281257 -111.1029736 8.43891258 -108.09100914 8.44494683 C-100.98446126 8.45898054 -93.87803363 8.45743995 -86.77148438 8.44604492 C-79.44706843 8.43455989 -72.12301848 8.44864821 -64.79865074 8.4754414 C-58.50207126 8.49760995 -52.20560658 8.50423334 -45.90899086 8.49836498 C-42.15178279 8.49499752 -38.39480942 8.49739641 -34.63763428 8.51461601 C-30.4482917 8.53297958 -26.25966006 8.51888631 -22.0703125 8.50170898 C-20.82960999 8.51137695 -19.58890747 8.52104492 -18.31060791 8.53100586 C-11.93413758 8.47618728 -7.79560431 8.39735971 -3 4 C-1.16699091 1.89424357 -1.16699091 1.89424357 0 0 Z " fill="#1D1B6F" transform="translate(675,675)"/>
<path d="M0 0 C0.66 0 1.32 0 2 0 C2 0.99 2 1.98 2 3 C19.82 3.33 37.64 3.66 56 4 C56.495 4.99 56.495 4.99 57 6 C55.92671196 6.00546844 55.92671196 6.00546844 54.83174133 6.01104736 C48.0783225 6.04896289 41.32535881 6.10585538 34.57227802 6.18390274 C31.10065676 6.22336028 27.62928846 6.2555567 24.1574707 6.27099609 C20.16316222 6.28908061 16.16979857 6.33903842 12.17578125 6.390625 C10.31147209 6.39246796 10.31147209 6.39246796 8.40950012 6.39434814 C6.66826118 6.42392609 6.66826118 6.42392609 4.8918457 6.45410156 C3.36295464 6.46742523 3.36295464 6.46742523 1.80317688 6.48101807 C-1.69202259 7.1281215 -3.41865245 8.61951446 -6 11 C-6 9.68 -6 8.36 -6 7 C-4.7934375 6.6596875 -4.7934375 6.6596875 -3.5625 6.3125 C-2.716875 5.879375 -1.87125 5.44625 -1 5 C-0.10613836 2.45224694 -0.10613836 2.45224694 0 0 Z " fill="#3F3D88" transform="translate(1061,528)"/>
<path d="M0 0 C16.97661531 -0.09348109 33.95315019 -0.1639976 50.92996407 -0.20724869 C58.81277195 -0.22786557 66.69541982 -0.25596929 74.578125 -0.30175781 C81.4494684 -0.34165255 88.3206959 -0.36743917 95.1921519 -0.37635398 C98.82989849 -0.38156433 102.46731354 -0.39379182 106.10495377 -0.42292023 C110.16793718 -0.45519005 114.23034585 -0.45595773 118.29345703 -0.45410156 C119.49683212 -0.46848267 120.70020721 -0.48286377 121.94004822 -0.49768066 C128.24533098 -0.46646002 132.21130353 -0.2802192 137 4 C136.67 4.99 136.34 5.98 136 7 C135.236875 6.360625 134.47375 5.72125 133.6875 5.0625 C129.96328931 2.20438482 127.33963982 1.87304356 122.77986145 1.84178162 C121.15815788 1.82709839 121.15815788 1.82709839 119.50369263 1.81211853 C117.72452957 1.80348534 117.72452957 1.80348534 115.90942383 1.79467773 C114.66052872 1.78477814 113.41163361 1.77487854 112.12489319 1.76467896 C108.69956533 1.7384828 105.27426089 1.71662422 101.84889436 1.69667697 C98.26941051 1.67481228 94.68996906 1.64742595 91.11051941 1.62062073 C84.33202637 1.57070038 77.55350979 1.52575911 70.77497071 1.48259836 C63.05797045 1.43322037 55.34101272 1.37830432 47.6240536 1.32291877 C31.74940837 1.20910882 15.87472403 1.10226763 0 1 C0 0.67 0 0.34 0 0 Z " fill="#1B1875" transform="translate(536,532)"/>
<path d="M0 0 C32.67 0 65.34 0 99 0 C99.495 1.485 99.495 1.485 100 3 C99.01 2.67 98.02 2.34 97 2 C95.66752504 1.90110961 94.33078879 1.85400722 92.9947052 1.84178162 C92.18282242 1.8319928 91.37093964 1.82220398 90.53445435 1.81211853 C89.64756927 1.80636307 88.7606842 1.8006076 87.84692383 1.79467773 C86.44175255 1.77982834 86.44175255 1.77982834 85.00819397 1.76467896 C81.90783222 1.73305911 78.80745514 1.70830454 75.70703125 1.68359375 C73.55897114 1.66302465 71.41091508 1.64202819 69.26286316 1.62062073 C63.60595987 1.56539557 57.94902003 1.5159882 52.29205322 1.46777344 C46.52084088 1.41756169 40.7496817 1.36187392 34.97851562 1.30664062 C23.65238745 1.19905358 12.32621419 1.09811572 1 1 C1 12.55 1 24.1 1 36 C0.67 36 0.34 36 0 36 C0 24.12 0 12.24 0 0 Z " fill="#1B186F" transform="translate(752,568)"/>
<path d="M0 0 C0.66 0.33 1.32 0.66 2 1 C1.35002045 1.79393661 0.70004089 2.58787323 0.03036499 3.40586853 C-2.74881201 7.60779731 -2.54867561 11.59959274 -2.48583984 16.50610352 C-2.48963654 17.44504456 -2.49343323 18.3839856 -2.49734497 19.35137939 C-2.50473338 22.44423194 -2.48339309 25.5361377 -2.4609375 28.62890625 C-2.45855213 30.78311554 -2.45764795 32.93732693 -2.4581604 35.09153748 C-2.4550354 39.60144109 -2.4384918 44.11102612 -2.41162109 48.62084961 C-2.37762154 54.40016267 -2.36999332 60.1791262 -2.37151146 65.95852757 C-2.37096752 70.4049157 -2.35999676 74.85122751 -2.34550858 79.29759026 C-2.33914726 81.42863322 -2.33520324 83.55968483 -2.33372116 85.69073677 C-2.32938229 88.66840459 -2.31186897 91.64570273 -2.29052734 94.62329102 C-2.29143372 95.50291 -2.29234009 96.38252899 -2.29327393 97.2888031 C-2.24771757 101.63817134 -2.03130652 105.04026869 0 109 C-1.65 108.34 -3.3 107.68 -5 107 C-4.99777939 105.76638229 -4.99555878 104.53276459 -4.99327087 103.26176453 C-4.97302332 91.65166141 -4.95802005 80.04156187 -4.94818783 68.43144512 C-4.94296312 62.46218316 -4.9358729 56.49293542 -4.92456055 50.52368164 C-4.91371709 44.76600313 -4.90772005 39.00833833 -4.90512276 33.25065041 C-4.90327115 31.05096025 -4.89965557 28.85127087 -4.89426994 26.65158653 C-4.88704022 23.57719663 -4.88600988 20.50286379 -4.88647461 17.4284668 C-4.88287933 16.51352951 -4.87928406 15.59859222 -4.87557983 14.65592957 C-4.8769545 13.81880432 -4.87832916 12.98167908 -4.87974548 12.1191864 C-4.87882369 11.39189174 -4.8779019 10.66459707 -4.87695217 9.91526318 C-4.93263956 7.77749209 -4.93263956 7.77749209 -6 5 C-5.34 5 -4.68 5 -4 5 C-3.71125 4.360625 -3.4225 3.72125 -3.125 3.0625 C-2 1 -2 1 0 0 Z " fill="#1D1974" transform="translate(127,552)"/>
<path d="M0 0 C2 2 2 2 2.20254517 4.40444946 C2.18033905 5.41260712 2.15813293 6.42076477 2.13525391 7.45947266 C2.11508209 8.60050446 2.09491028 9.74153625 2.0741272 10.91714478 C2.04193085 12.15362762 2.0097345 13.39011047 1.9765625 14.6640625 C1.93902359 16.5575795 1.93902359 16.5575795 1.90072632 18.48934937 C1.83234761 21.84660107 1.75516751 25.20341857 1.67376709 28.56036377 C1.59286707 31.9854014 1.52347458 35.4106698 1.453125 38.8359375 C1.31272199 45.55755597 1.16071576 52.27883822 1 59 C-0.32 59.66 -1.64 60.32 -3 61 C-3 60.34 -3 59.68 -3 59 C-17.19 59 -31.38 59 -46 59 C-46.33 59.99 -46.66 60.98 -47 62 C-47.66 62 -48.32 62 -49 62 C-49 60.68 -49 59.36 -49 58 C-32.83 58 -16.66 58 0 58 C0 38.86 0 19.72 0 0 Z " fill="#1B186D" transform="translate(1027,626)"/>
<path d="M0 0 C4.57765203 3.74535166 8.78613713 7.73411504 12.9375 11.9375 C16.86388035 15.91247417 20.85141301 19.70918544 25.109375 23.33203125 C28.57009817 26.38518992 31.77684187 29.69969181 35 33 C34.01 33.33 33.02 33.66 32 34 C31.67 33.34 31.34 32.68 31 32 C30.38125 31.896875 29.7625 31.79375 29.125 31.6875 C27 31 27 31 25.3125 28.625 C24 26 24 26 23 23 C21.02 23.66 19.04 24.32 17 25 C17.33 23.02 17.66 21.04 18 19 C16.35 18.34 14.7 17.68 13 17 C13 16.34 13 15.68 13 15 C12.195625 15.020625 11.39125 15.04125 10.5625 15.0625 C8 15 8 15 7 14 C6.95936168 12.33382885 6.957279 10.66611905 7 9 C6.34 9 5.68 9 5 9 C4.525625 8.360625 4.05125 7.72125 3.5625 7.0625 C2.0908635 4.71627037 2.0908635 4.71627037 -1 4 C-0.67 2.68 -0.34 1.36 0 0 Z " fill="#171776" transform="translate(930,581)"/>
<path d="M0 0 C0.33 0 0.66 0 1 0 C1 10.89 1 21.78 1 33 C-0.32 33 -1.64 33 -3 33 C-3 23.76 -3 14.52 -3 5 C-2.34 5 -1.68 5 -1 5 C-0.67 3.35 -0.34 1.7 0 0 Z " fill="#1E1D82" transform="translate(203,592)"/>
<path d="M0 0 C0.33 0 0.66 0 1 0 C1.00364563 1.16209488 1.00729126 2.32418976 1.01104736 3.52149963 C1.04801813 14.48301409 1.10581384 25.44424815 1.18390274 36.40554905 C1.22338074 42.04064141 1.25556779 47.67557742 1.27099609 53.31079102 C1.28616032 58.75098465 1.32060231 64.19074847 1.36830902 69.63075066 C1.38312512 71.70428668 1.39104114 73.77788407 1.39188385 75.85147285 C1.39425451 78.76025122 1.42134279 81.66784274 1.45410156 84.57641602 C1.4490712 85.43021851 1.44404083 86.284021 1.43885803 87.16369629 C1.53848478 92.89629094 2.78529891 96.23975418 6 101 C3.5625 100.625 3.5625 100.625 1 100 C-0.72439077 96.55121847 -0.1285325 92.57188932 -0.11352539 88.77685547 C-0.11367142 87.8207135 -0.11381744 86.86457153 -0.1139679 85.87945557 C-0.1132694 82.70867673 -0.1054799 79.53795612 -0.09765625 76.3671875 C-0.09579185 74.17286206 -0.09436805 71.97853621 -0.09336853 69.78421021 C-0.0895451 64.00065976 -0.07971628 58.2171343 -0.06866455 52.43359375 C-0.0584467 46.53515969 -0.05387011 40.6367216 -0.04882812 34.73828125 C-0.03809388 23.15884317 -0.02101953 11.57942366 0 0 Z " fill="#1E1A78" transform="translate(502,562)"/>
<path d="M0 0 C0.33 0.99 0.66 1.98 1 3 C1.66 3.33 2.32 3.66 3 4 C3.66 4.33 4.32 4.66 5 5 C6.99960012 5.039992 9.00047242 5.04346799 11 5 C10.01 5.66 9.02 6.32 8 7 C2.88835413 10.86537793 -2.10815551 14.86074697 -7 19 C-7.33 17.35 -7.66 15.7 -8 14 C-6.35 13.67 -4.7 13.34 -3 13 C-3 12.01 -3 11.02 -3 10 C-3.99 9.67 -4.98 9.34 -6 9 C-5.52797514 4.75177626 -3.03344482 2.80010291 0 0 Z " fill="#19177F" transform="translate(521,528)"/>
<path d="M0 0 C5.32352537 0.18608067 7.60736485 2.06731307 11.1484375 5.70898438 C11.71820312 6.32064453 12.28796875 6.93230469 12.875 7.5625 C13.46796875 8.17802734 14.0609375 8.79355469 14.671875 9.42773438 C16.12622022 10.94072255 17.5647306 12.468904 19 14 C17.68 14.33 16.36 14.66 15 15 C14.67 13.68 14.34 12.36 14 11 C12.68 11 11.36 11 10 11 C10 10.01 10 9.02 10 8 C9.01 8.33 8.02 8.66 7 9 C4.8125 7.5625 4.8125 7.5625 3 6 C2.01 6.495 2.01 6.495 1 7 C1 6.34 1 5.68 1 5 C-0.32 5.33 -1.64 5.66 -3 6 C-2.01 4.02 -1.02 2.04 0 0 Z " fill="#231F8B" transform="translate(893,549)"/>
<path d="M0 0 C0.66 0 1.32 0 2 0 C2.24444362 7.88307692 2.45684342 15.76655036 2.64697266 23.65112305 C2.71312803 26.33345967 2.78946997 29.01521879 2.87451172 31.69702148 C2.99294131 35.55169079 3.08497667 39.40622571 3.171875 43.26171875 C3.21439392 44.46084396 3.25691284 45.65996918 3.30072021 46.89543152 C3.4523646 55.25845381 3.4523646 55.25845381 0.98925781 59.29614258 C0.33280273 59.85841553 -0.32365234 60.42068848 -1 61 C-1.66 60.67 -2.32 60.34 -3 60 C-2.690625 59.236875 -2.38125 58.47375 -2.0625 57.6875 C-0.54577305 53.851073 0.12346618 50.99153116 0.11352539 46.88598633 C0.11344986 45.84513382 0.11337433 44.80428131 0.11329651 43.73188782 C0.10555458 42.04895882 0.10555458 42.04895882 0.09765625 40.33203125 C0.0962413 39.18208176 0.09482635 38.03213226 0.09336853 36.84733582 C0.08776429 33.16903092 0.07521104 29.49078655 0.0625 25.8125 C0.05748555 23.32096442 0.05292255 20.82942789 0.04882812 18.33789062 C0.03779347 12.22523971 0.02105118 6.11262418 0 0 Z " fill="#181873" transform="translate(891,562)"/>
<path d="M0 0 C4.82220418 3.20666203 4.82220418 3.20666203 5.60127258 6.68292236 C5.59016953 7.70440369 5.57906647 8.72588501 5.56762695 9.77832031 C5.5672493 10.9392218 5.56687164 12.10012329 5.56648254 13.29620361 C5.54067612 14.54423767 5.51486969 15.79227173 5.48828125 17.078125 C5.47766914 19.00069122 5.47766914 19.00069122 5.46684265 20.96209717 C5.44779234 24.36231616 5.39871189 27.76145958 5.34332275 31.16125488 C5.29208578 34.63339691 5.26931933 38.10571353 5.24414062 41.578125 C5.19058875 48.38585726 5.10530171 55.19287693 5 62 C4.67 62 4.34 62 4 62 C3.67 44.84 3.34 27.68 3 10 C2.01 9.67 1.02 9.34 0 9 C0 7.68 0 6.36 0 5 C0.66 5 1.32 5 2 5 C1.34 3.35 0.68 1.7 0 0 Z " fill="#18157C" transform="translate(972,622)"/>
<path d="M0 0 C0.70703125 1.74609375 0.70703125 1.74609375 1 4 C-0.36328125 6.03515625 -0.36328125 6.03515625 -2.3125 8.0625 C-4.47157455 10.34419948 -6.24694263 12.37041395 -8 15 C-7.34 15.66 -6.68 16.32 -6 17 C-10.66019417 18.94174757 -10.66019417 18.94174757 -13.1875 19.375 C-13.785625 19.58125 -14.38375 19.7875 -15 20 C-15.268125 20.639375 -15.53625 21.27875 -15.8125 21.9375 C-17 24 -17 24 -20.625 25.25 C-21.73875 25.4975 -22.8525 25.745 -24 26 C-21.74718869 22.90238445 -19.33862614 20.34721222 -16.4375 17.875 C-12.84243858 14.79545682 -9.42758177 11.57615057 -6.0625 8.25 C-5.12535156 7.32703125 -4.18820312 6.4040625 -3.22265625 5.453125 C-0.8205885 3.13282979 -0.8205885 3.13282979 0 0 Z " fill="#221F7D" transform="translate(1118,536)"/>
<path d="M0 0 C3.81377846 1.49827011 5.57365545 3.76487393 8 7 C8.66 7.66 9.32 8.32 10 9 C9.67 9.99 9.34 10.98 9 12 C7.35 12 5.7 12 4 12 C3.67 11.01 3.34 10.02 3 9 C2.34 8.835 1.68 8.67 1 8.5 C0.34 8.335 -0.32 8.17 -1 8 C-1.33 7.01 -1.66 6.02 -2 5 C-1.01 4.34 -0.02 3.68 1 3 C0.67 2.01 0.34 1.02 0 0 Z " fill="#211D88" transform="translate(356,673)"/>
<path d="M0 0 C-4.16419851 4.2571955 -8.27652257 8.35617456 -13 12 C-14.0173873 12.98230498 -15.02596117 13.97469597 -16 15 C-16.33 13.68 -16.66 12.36 -17 11 C-16.01 11 -15.02 11 -14 11 C-13.67 9.68 -13.34 8.36 -13 7 C-12.34 7 -11.68 7 -11 7 C-10.979375 6.236875 -10.95875 5.47375 -10.9375 4.6875 C-10 2 -10 2 -6.625 0.125 C-3 -1 -3 -1 0 0 Z " fill="#1E1D7C" transform="translate(727,542)"/>
<path d="M0 0 C0.66 0.33 1.32 0.66 2 1 C0.4722133 4.43752007 -1.50181056 7.18953688 -4 10 C-4.66 10 -5.32 10 -6 10 C-6.61875 10.61875 -7.2375 11.2375 -7.875 11.875 C-10 14 -10 14 -11.9375 14.875 C-15.09198874 16.59563022 -16.795024 19.18253067 -19 22 C-19.33 21.34 -19.66 20.68 -20 20 C-15.93271189 15.10654399 -11.72019588 10.72593464 -6.8671875 6.609375 C-4.44537851 4.52195805 -2.22485957 2.29438644 0 0 Z " fill="#ECEDF8" transform="translate(145,537)"/>
<path d="M0 0 C-0.33 1.32 -0.66 2.64 -1 4 C-15.85 3.67 -30.7 3.34 -46 3 C-46 2.67 -46 2.34 -46 2 C-44.35801636 1.96241577 -44.35801636 1.96241577 -42.68286133 1.92407227 C-38.61064517 1.82969992 -34.53858774 1.72955269 -30.46655273 1.62768555 C-28.70617392 1.58444931 -26.94575622 1.5427665 -25.18530273 1.50268555 C-22.65075987 1.44470815 -20.11641066 1.38109373 -17.58203125 1.31640625 C-16.79850784 1.29969376 -16.01498444 1.28298126 -15.2077179 1.26576233 C-10.05081772 1.12684164 -5.12649523 0 0 0 Z " fill="#1A1875" transform="translate(390,530)"/>
<path d="M0 0 C4.58050009 1.90681452 7.2856151 5.31437969 10.5859375 8.90625 C13.2903549 11.25182885 15.56656415 12.08969424 19 13 C19 13.99 19 14.98 19 16 C20.94009522 17.70532323 20.94009522 17.70532323 23 19 C22.34 19 21.68 19 21 19 C20.67 19.66 20.34 20.32 20 21 C17.14852788 18.17317491 14.30029574 15.34313037 11.45507812 12.51000977 C10.48592079 11.54589335 9.51586952 10.58267471 8.54492188 9.62036133 C7.15262088 8.24013641 5.7637538 6.85645022 4.375 5.47265625 C3.53710938 4.64000244 2.69921875 3.80734863 1.8359375 2.94946289 C0 1 0 1 0 0 Z " fill="#1D1D6C" transform="translate(870,540)"/>
<path d="M0 0 C0.5 2.1875 0.5 2.1875 0 5 C-1.87482136 6.40041401 -3.85286657 7.46674047 -5.8984375 8.6015625 C-8.16033568 10.10669177 -9.31652379 11.5014468 -10.8125 13.75 C-13 17 -13 17 -16 18 C-16 15 -16 15 -14.63891602 13.2824707 C-14.01686279 12.66976318 -13.39480957 12.05705566 -12.75390625 11.42578125 C-12.08166016 10.75869141 -11.40941406 10.09160156 -10.71679688 9.40429688 C-10.00587891 8.71400391 -9.29496094 8.02371094 -8.5625 7.3125 C-7.50192383 6.2596582 -7.50192383 6.2596582 -6.41992188 5.18554688 C-1.15374453 0 -1.15374453 0 0 0 Z " fill="#212377" transform="translate(1094,562)"/>
<path d="M0 0 C4.00087999 1.33362666 6.09283814 3.00198933 9 6 C10.3303125 6.7425 10.3303125 6.7425 11.6875 7.5 C14 9 14 9 14.640625 10.734375 C15.06964249 13.4390505 15.09509225 16.01225124 15.0625 18.75 C15.05347656 19.73484375 15.04445313 20.7196875 15.03515625 21.734375 C15.02355469 22.48203125 15.01195312 23.2296875 15 24 C14.67 24 14.34 24 14 24 C13.81824219 22.98679687 13.81824219 22.98679687 13.6328125 21.953125 C13.46523438 21.06109375 13.29765625 20.1690625 13.125 19.25 C12.96257813 18.36828125 12.80015625 17.4865625 12.6328125 16.578125 C11.47625547 11.86622599 9.73794317 9.50893492 6 6.4375 C3.44227537 4.32643684 1.866865 2.80029749 0 0 Z " fill="#211F76" transform="translate(679,544)"/>
<path d="M0 0 C5.29012124 4.40843437 10.18808428 9.07559794 15 14 C14.01 14.33 13.02 14.66 12 15 C11.67 14.34 11.34 13.68 11 13 C10.071875 12.8453125 10.071875 12.8453125 9.125 12.6875 C7 12 7 12 5.3125 9.625 C4 7 4 7 3 4 C1.02 4.66 -0.96 5.32 -3 6 C-2.625 3.5625 -2.625 3.5625 -2 1 C-1.34 0.67 -0.68 0.34 0 0 Z " fill="#313089" transform="translate(950,600)"/>
<path d="M0 0 C1.98 0 3.96 0 6 0 C2.32167983 4.52615993 -1.41086363 8.39424999 -6 12 C-6.33 11.34 -6.66 10.68 -7 10 C-5.75 6.9375 -5.75 6.9375 -4 4 C-3.01 3.67 -2.02 3.34 -1 3 C-0.67 2.01 -0.34 1.02 0 0 Z " fill="#F4F7FB" transform="translate(1062,586)"/>
<path d="M0 0 C0.33 0 0.66 0 1 0 C0.98839844 0.75925781 0.97679687 1.51851562 0.96484375 2.30078125 C0.95582031 3.29464844 0.94679688 4.28851562 0.9375 5.3125 C0.92589844 6.29863281 0.91429687 7.28476562 0.90234375 8.30078125 C0.87670138 11.09963849 0.87670138 11.09963849 2 14 C-0.5 15.5 -0.5 15.5 -3 17 C-3.886875 17.5775 -4.77375 18.155 -5.6875 18.75 C-6.450625 19.1625 -7.21375 19.575 -8 20 C-8.66 19.67 -9.32 19.34 -10 19 C-9.52949219 18.63390625 -9.05898438 18.2678125 -8.57421875 17.890625 C-2.68209126 12.76703588 -1.30244921 7.55420544 0 0 Z " fill="#201E7B" transform="translate(693,648)"/>
<path d="M0 0 C0.33 0.66 0.66 1.32 1 2 C0.0625 4.625 0.0625 4.625 -1 7 C-1.99 7 -2.98 7 -4 7 C-4.268125 7.639375 -4.53625 8.27875 -4.8125 8.9375 C-6 11 -6 11 -9 12 C-10.37195574 13.29355827 -11.71182656 14.62298702 -13 16 C-13.66 15.67 -14.32 15.34 -15 15 C-10.05 10.05 -5.1 5.1 0 0 Z " fill="#1C1B72" transform="translate(1062,592)"/>
<path d="M0 0 C3.93673644 1.31224548 6.22719294 2.91910327 9 6 C9.66 5.34 10.32 4.68 11 4 C11.66 5.32 12.32 6.64 13 8 C12.34 8 11.68 8 11 8 C11 8.66 11 9.32 11 10 C11.66 10 12.32 10 13 10 C13.33 11.32 13.66 12.64 14 14 C9.10565787 9.90473413 4.29279666 5.73642915 0 1 C0 0.67 0 0.34 0 0 Z " fill="#27267C" transform="translate(867,639)"/>
<path d="M0 0 C0.86625 0.2784375 0.86625 0.2784375 1.75 0.5625 C4.22488597 1.04372783 5.60985476 0.67787733 8 0 C4.6189962 4.13621084 1.33409466 7.81316569 -3 11 C-2.814375 10.38125 -2.62875 9.7625 -2.4375 9.125 C-1.76313824 6.95839822 -1.76313824 6.95839822 -3 5 C-2.34 5 -1.68 5 -1 5 C-0.67 3.35 -0.34 1.7 0 0 Z " fill="#F2F4FD" transform="translate(1032,613)"/>
<path d="M0 0 C3.33510304 1.11170101 4.10364173 1.99468142 6.3125 4.625 C7.22128906 5.69621094 7.22128906 5.69621094 8.1484375 6.7890625 C8.75945313 7.51867187 9.37046875 8.24828125 10 9 C11.14453013 10.33445216 12.29025017 11.66788527 13.4375 13 C14.283125 13.99 15.12875 14.98 16 16 C14.35 15.67 12.7 15.34 11 15 C10.67 13.68 10.34 12.36 10 11 C9.13375 10.938125 9.13375 10.938125 8.25 10.875 C3.8415409 9.16059924 1.90462866 4.12669544 0 0 Z " fill="#1E1C74" transform="translate(508,664)"/>
<path d="M0 0 C3.42856619 1.50982731 5.95678216 3.51713969 8.75 6 C9.54921875 6.70125 10.3484375 7.4025 11.171875 8.125 C13 10 13 10 13 12 C14.32 12 15.64 12 17 12 C17.99 12.33 18.98 12.66 20 13 C18 15 18 15 15.80078125 15.03125 C11.64757621 13.50203643 9.20004919 10.66368042 6.1875 7.5 C5.59001953 6.89285156 4.99253906 6.28570313 4.37695312 5.66015625 C0 1.16815179 0 1.16815179 0 0 Z " fill="#282575" transform="translate(986,575)"/>
<path d="M0 0 C2.49361571 1.20381448 4.68143083 2.45428722 7 4 C9.16666667 3.16666667 9.16666667 3.16666667 10 1 C11.52299523 3.93720508 12.80100302 6.9168649 14 10 C9.8783707 10 8.2608037 8.47821082 5 6 C3.19722052 4.07515733 1.61603158 2.09133499 0 0 Z " fill="#1C1982" transform="translate(978,567)"/>
<path d="M0 0 C0.66 0.33 1.32 0.66 2 1 C1.34 1.66 0.68 2.32 0 3 C0 2.01 0 1.02 0 0 Z M-2 2 C-1.67 2.99 -1.34 3.98 -1 5 C-1.99 5.33 -2.98 5.66 -4 6 C-4 6.66 -4 7.32 -4 8 C-5.875 10.125 -5.875 10.125 -8 12 C-8.66 12 -9.32 12 -10 12 C-10.33 12.99 -10.66 13.98 -11 15 C-12.65 15.33 -14.3 15.66 -16 16 C-15.278125 15.29875 -14.55625 14.5975 -13.8125 13.875 C-11.88890487 11.96227264 -10.13816445 9.98762665 -8.4375 7.875 C-6.39372652 5.46439539 -4.60712305 3.73808203 -2 2 Z " fill="#E6E8F7" transform="translate(1060,534)"/>
<path d="M0 0 C1.1055189 0.93590504 2.20935453 1.87379858 3.3125 2.8125 C3.92738281 3.33457031 4.54226563 3.85664062 5.17578125 4.39453125 C8.51952278 7.3373102 8.51952278 7.3373102 10 9 C10 9.66 10 10.32 10 11 C9.34 11 8.68 11 8 11 C7.67 10.34 7.34 9.68 7 9 C5.11986894 7.87775145 5.11986894 7.87775145 2.9375 6.875 C2.20402344 6.52179687 1.47054687 6.16859375 0.71484375 5.8046875 C0.14894531 5.53914062 -0.41695312 5.27359375 -1 5 C-0.67 3.35 -0.34 1.7 0 0 Z " fill="#181A71" transform="translate(841,673)"/>
<path d="M0 0 C0.33 0.99 0.66 1.98 1 3 C1.66 3.33 2.32 3.66 3 4 C3.66 4.33 4.32 4.66 5 5 C6.99960012 5.039992 9.00047242 5.04346799 11 5 C8.37352812 6.75098126 5.71224618 8.38731308 3 10 C2.67 9.01 2.34 8.02 2 7 C1.01 6.67 0.02 6.34 -1 6 C-1.33 5.01 -1.66 4.02 -2 3 C-1.34 2.01 -0.68 1.02 0 0 Z " fill="#1F1E84" transform="translate(521,528)"/>
<path d="M0 0 C2.6875 -0.3125 2.6875 -0.3125 5 0 C4.2575 0.721875 3.515 1.44375 2.75 2.1875 C-2.02735709 7.01942694 -2.02735709 7.01942694 -5 13 C-5.66 13 -6.32 13 -7 13 C-6.6875 10.125 -6.6875 10.125 -6 7 C-5.01 6.34 -4.02 5.68 -3 5 C-2.54625 4.13375 -2.0925 3.2675 -1.625 2.375 C-1.08875 1.59125 -0.5525 0.8075 0 0 Z " fill="#26247B" transform="translate(509,547)"/>
<path d="M0 0 C0.66 0 1.32 0 2 0 C2 0.99 2 1.98 2 3 C5.3 3 8.6 3 12 3 C12 3.33 12 3.66 12 4 C11.3709375 4.00257813 10.741875 4.00515625 10.09375 4.0078125 C3.06496306 4.32537817 -0.83568326 6.28287269 -6 11 C-6 9.68 -6 8.36 -6 7 C-4.7934375 6.6596875 -4.7934375 6.6596875 -3.5625 6.3125 C-2.716875 5.879375 -1.87125 5.44625 -1 5 C-0.10613836 2.45224694 -0.10613836 2.45224694 0 0 Z " fill="#201F7F" transform="translate(1061,528)"/>
<path d="M0 0 C4.875 4.75 4.875 4.75 6 7 C5.01 8.485 5.01 8.485 4 10 C1.69 7.69 -0.62 5.38 -3 3 C-2.01 2.01 -1.02 1.02 0 0 Z " fill="#E8EBF6" transform="translate(514,664)"/>
<path d="M0 0 C0.66 0 1.32 0 2 0 C2.3125 3.25 2.3125 3.25 2 7 C-0.375 9.4375 -0.375 9.4375 -3 11 C-3.66 11 -4.32 11 -5 11 C-4.32902328 6.80639551 -2.1441606 3.59665648 0 0 Z " fill="#221D7E" transform="translate(324,656)"/>
<path d="M0 0 C0.33 1.32 0.66 2.64 1 4 C1.66 4 2.32 4 3 4 C3.94684347 5.38644937 4.88625246 6.77874917 5.78125 8.19921875 C7.91589055 11.353287 10.47520924 14.15540241 13 17 C10.12333727 15.66938508 7.78863364 14.17712023 5.375 12.125 C4.78460938 11.63257813 4.19421875 11.14015625 3.5859375 10.6328125 C1.0412063 8.01286757 0.04070729 5.8955604 -0.125 2.25 C-0.063125 1.13625 -0.063125 1.13625 0 0 Z " fill="#201E73" transform="translate(341,653)"/>
<path d="M0 0 C0 1.65 0 3.3 0 5 C-1.32 5 -2.64 5 -4 5 C-4.4021875 6.175625 -4.4021875 6.175625 -4.8125 7.375 C-6 10 -6 10 -9 12 C-9 8 -9 8 -7.28515625 5.859375 C-6.55167969 5.16328125 -5.81820313 4.4671875 -5.0625 3.75 C-4.33160156 3.04359375 -3.60070313 2.3371875 -2.84765625 1.609375 C-1 0 -1 0 0 0 Z " fill="#1D197B" transform="translate(1038,616)"/>
<path d="M0 0 C0.66 0.33 1.32 0.66 2 1 C0.90653119 2.34212062 -0.2001575 3.67347975 -1.3125 5 C-1.92738281 5.7425 -2.54226563 6.485 -3.17578125 7.25 C-5 9 -5 9 -8 9 C-9.68798827 10.43750191 -9.68798827 10.43750191 -11 12 C-11.66 11.67 -12.32 11.34 -13 11 C-8.94510767 6.72916666 -5.03681497 3.07122864 0 0 Z " fill="#E9EAF9" transform="translate(529,534)"/>
<path d="M0 0 C0.66 0 1.32 0 2 0 C0.56869725 3.16168368 -1.17514138 5.62274483 -3.4375 8.25 C-4.03433594 8.95640625 -4.63117188 9.6628125 -5.24609375 10.390625 C-7 12 -7 12 -10 12 C-9.24172908 10.82512964 -8.46792245 9.66027408 -7.6875 8.5 C-7.25824219 7.8503125 -6.82898438 7.200625 -6.38671875 6.53125 C-5.92910156 6.0259375 -5.47148437 5.520625 -5 5 C-4.01 5 -3.02 5 -2 5 C-1.855625 4.360625 -1.71125 3.72125 -1.5625 3.0625 C-1 1 -1 1 0 0 Z " fill="#E0E1F5" transform="translate(322,657)"/>
<path d="M0 0 C2 1 2 1 3.1875 3.375 C4 6 4 6 3 9 C0.03 7.02 -2.94 5.04 -6 3 C-4.68 2.67 -3.36 2.34 -2 2 C-1.34 1.34 -0.68 0.68 0 0 Z " fill="#221C8E" transform="translate(950,532)"/>
<path d="M0 0 C0.66 0.33 1.32 0.66 2 1 C-1.96 4.96 -5.92 8.92 -10 13 C-10.33 12.34 -10.66 11.68 -11 11 C-9.07470267 6.82852245 -6.95813513 5.17697432 -3 3 C-1.24850835 1.41754725 -1.24850835 1.41754725 0 0 Z " fill="#18176F" transform="translate(1035,556)"/>
<path d="M0 0 C0.66 0 1.32 0 2 0 C1.84518205 2.70931419 1.51827919 4.46584039 -0.40234375 6.4453125 C-1.89771708 7.67679642 -3.4462924 8.8429837 -5 10 C-5.33 9.34 -5.66 8.68 -6 8 C-2.25 2.25 -2.25 2.25 0 0 Z " fill="#EFF1FB" transform="translate(690,655)"/>
<path d="M0 0 C0.82757812 0.48082031 1.65515625 0.96164062 2.5078125 1.45703125 C6.36467547 3.16112619 9.73033687 3.54693487 13.875 3.6875 C14.56335938 3.72166016 15.25171875 3.75582031 15.9609375 3.79101562 C17.64008613 3.87264091 19.32001168 3.9380157 21 4 C21 4.33 21 4.66 21 5 C14.73 5 8.46 5 2 5 C1.34 3.35 0.68 1.7 0 0 Z " fill="#222175" transform="translate(524,680)"/>
<path d="M0 0 C0.33 0 0.66 0 1 0 C1.33292585 4.24480464 1.43885872 6.35542625 -1 9.9375 C-1.66 10.618125 -2.32 11.29875 -3 12 C-3.66 11.67 -4.32 11.34 -5 11 C-4.690625 10.236875 -4.38125 9.47375 -4.0625 8.6875 C-3.32106407 6.81210323 -2.63771783 4.91315348 -2 3 C-1.34 3 -0.68 3 0 3 C0 2.01 0 1.02 0 0 Z " fill="#1E1B7D" transform="translate(893,611)"/>
<path d="M0 0 C3.91841827 1.30613942 6.32640809 2.83129848 9 6 C9 6.66 9 7.32 9 8 C7.35 8 5.7 8 4 8 C4 7.01 4 6.02 4 5 C3.01 5 2.02 5 1 5 C0.67 3.35 0.34 1.7 0 0 Z " fill="#EDEFFB" transform="translate(665,534)"/>
<path d="M0 0 C1.12894876 0.93274109 2.25300876 1.87140122 3.375 2.8125 C4.00148438 3.33457031 4.62796875 3.85664062 5.2734375 4.39453125 C7 6 7 6 9 9 C8.01 9.495 8.01 9.495 7 10 C6.236875 9.195625 5.47375 8.39125 4.6875 7.5625 C2.20569102 4.83200976 2.20569102 4.83200976 -1 4 C-0.67 2.68 -0.34 1.36 0 0 Z " fill="#212377" transform="translate(930,581)"/>
<path d="M0 0 C5.35169248 2.02496472 8.34319507 3.81290465 11 9 C11 9.99 11 10.98 11 12 C9.16364422 10.19047409 7.33083792 8.37759362 5.5 6.5625 C4.97535156 6.04623047 4.45070313 5.52996094 3.91015625 4.99804688 C2.58775448 3.68423213 1.29164432 2.34406495 0 1 C0 0.67 0 0.34 0 0 Z " fill="#18176F" transform="translate(966,555)"/>
<path d="M0 0 C0.66 0.33 1.32 0.66 2 1 C1.67 1.598125 1.34 2.19625 1 2.8125 C-0.20787988 5.05386471 -0.20787988 5.05386471 0 8 C-1.65 8.66 -3.3 9.32 -5 10 C-4.56802365 5.2482602 -3.67230705 3.07999946 0 0 Z " fill="#E7EAF7" transform="translate(509,551)"/>
<path d="M0 0 C2.92090003 1.30936898 4.75619462 2.75619462 7 5 C7.99 5.33 8.98 5.66 10 6 C11.1875 9.0625 11.1875 9.0625 12 12 C7.47384007 8.32167983 3.60575001 4.58913637 0 0 Z " fill="#1B1972" transform="translate(949,538)"/>
<path d="M0 0 C1.98 1.65 3.96 3.3 6 5 C5 7 5 7 3 7.6875 C2.34 7.790625 1.68 7.89375 1 8 C0 7 0 7 -0.0625 3.4375 C-0.041875 2.303125 -0.02125 1.16875 0 0 Z " fill="#1C197C" transform="translate(912,564)"/>
<path d="M0 0 C0.66 0.99 1.32 1.98 2 3 C1.67 3.99 1.34 4.98 1 6 C-2.5625 7.6875 -2.5625 7.6875 -6 9 C-4.68775452 5.06326356 -3.08089673 2.77280706 0 0 Z " fill="#E1E3F4" transform="translate(717,550)"/>
<path d="M0 0 C2.43816585 -0.0809723 4.87364384 -0.14046972 7.3125 -0.1875 C8.34793945 -0.22520508 8.34793945 -0.22520508 9.40429688 -0.26367188 C14.55674183 -0.33834499 14.55674183 -0.33834499 16.98046875 1.51171875 C17.31691406 2.00285156 17.65335938 2.49398437 18 3 C17.01 3.495 17.01 3.495 16 4 C14.33174841 3.33730939 12.66535272 2.66994218 11 2 C9.07096868 1.7240522 7.1310968 1.51550097 5.1875 1.375 C4.21167969 1.30023437 3.23585938 1.22546875 2.23046875 1.1484375 C1.12638672 1.07496094 1.12638672 1.07496094 0 1 C0 0.67 0 0.34 0 0 Z " fill="#24217A" transform="translate(848,532)"/>
<path d="M0 0 C-3.44615385 4.8 -3.44615385 4.8 -6.25 5.8125 C-7.11625 5.9053125 -7.11625 5.9053125 -8 6 C-6.53781513 1.3697479 -6.53781513 1.3697479 -4 -0.375 C-2 -1 -2 -1 0 0 Z " fill="#E8E8FB" transform="translate(891,617)"/>
<path d="M0 0 C0.99 0.33 1.98 0.66 3 1 C3 1.66 3 2.32 3 3 C3.99 3.33 4.98 3.66 6 4 C5.67 4.66 5.34 5.32 5 6 C1.9375 6.625 1.9375 6.625 -1 7 C-0.67 4.69 -0.34 2.38 0 0 Z " fill="#21237E" transform="translate(924,576)"/>
<path d="M0 0 C2.31 1.98 4.62 3.96 7 6 C6.01 6.66 5.02 7.32 4 8 C2.68 7.34 1.36 6.68 0 6 C0 4.02 0 2.04 0 0 Z " fill="#1E1C78" transform="translate(137,672)"/>
<path d="M0 0 C4.2742558 1.5830577 6.26531794 4.50568404 9 8 C8.01 8 7.02 8 6 8 C5.67 7.34 5.34 6.68 5 6 C2.97536745 5.34786708 2.97536745 5.34786708 1 5 C0.67 3.35 0.34 1.7 0 0 Z " fill="#26257D" transform="translate(956,607)"/>
<path d="M0 0 C3.7952131 1.49097658 5.61042731 3.75700849 8 7 C6.35 6.67 4.7 6.34 3 6 C3 5.01 3 4.02 3 3 C1.68 3 0.36 3 -1 3 C-0.67 2.01 -0.34 1.02 0 0 Z " fill="#1D1D72" transform="translate(904,557)"/>
<path d="M0 0 C0.99 0.33 1.98 0.66 3 1 C0.36 3.64 -2.28 6.28 -5 9 C-5.33 8.34 -5.66 7.68 -6 7 C-4.75 4.375 -4.75 4.375 -3 2 C-2.01 2 -1.02 2 0 2 C0 1.34 0 0.68 0 0 Z " fill="#1E1D72" transform="translate(1015,575)"/>
<path d="M0 0 C1.65 0 3.3 0 5 0 C5.25 2.3125 5.25 2.3125 5 5 C3 6.8125 3 6.8125 1 8 C0.67 7.01 0.34 6.02 0 5 C0.66 4.67 1.32 4.34 2 4 C2 3.34 2 2.68 2 2 C1.34 1.34 0.68 0.68 0 0 Z " fill="#EFF1FB" transform="translate(1113,534)"/>
<path d="M0 0 C1.14926266 0.95421808 2.29430541 1.91352045 3.4375 2.875 C4.07558594 3.40867187 4.71367188 3.94234375 5.37109375 4.4921875 C7 6 7 6 8 8 C7.01 8.33 6.02 8.66 5 9 C2 5.25 2 5.25 2 3 C1.34 3 0.68 3 0 3 C0 2.01 0 1.02 0 0 Z " fill="#D3D6EE" transform="translate(882,655)"/>
<path d="M0 0 C0.28875 0.598125 0.5775 1.19625 0.875 1.8125 C2.04742026 4.19327792 2.04742026 4.19327792 4 7 C3.01 7 2.02 7 1 7 C-1.1875 4.5 -1.1875 4.5 -3 2 C-2.01 1.34 -1.02 0.68 0 0 Z " fill="#EEF0FE" transform="translate(915,561)"/>
<path d="M0 0 C1.65 1.65 3.3 3.3 5 5 C3.35 5.66 1.7 6.32 0 7 C-0.38133299 5.0085944 -0.71325582 3.00720923 -1 1 C-0.67 0.67 -0.34 0.34 0 0 Z " fill="#F1F3F9" transform="translate(882,553)"/>
<path d="M0 0 C0.66 0.33 1.32 0.66 2 1 C-0.64 3.64 -3.28 6.28 -6 9 C-6.33 8.01 -6.66 7.02 -7 6 C-6.01 5.67 -5.02 5.34 -4 5 C-3.30062468 3.68352881 -2.63270867 2.34977849 -2 1 C-1.34 0.67 -0.68 0.34 0 0 Z " fill="#242274" transform="translate(142,538)"/>
<path d="M0 0 C-1.47692308 4.67692308 -1.47692308 4.67692308 -4.125 6.3125 C-5.053125 6.6528125 -5.053125 6.6528125 -6 7 C-6 4 -6 4 -4.125 1.8125 C-2 0 -2 0 0 0 Z " fill="#151874" transform="translate(1084,573)"/>
<path d="M0 0 C0.99 0.33 1.98 0.66 3 1 C3.70211894 2.65204456 4.36971413 4.31923769 5 6 C5.66 6.33 6.32 6.66 7 7 C4.625 6.6875 4.625 6.6875 2 6 C0 3 0 3 0 0 Z " fill="#111280" transform="translate(522,681)"/>
<path d="M0 0 C4.8 3.44615385 4.8 3.44615385 5.8125 6.25 C5.874375 6.8275 5.93625 7.405 6 8 C5.01 8.495 5.01 8.495 4 9 C2.10134397 6.02819057 0.64544429 3.48539917 0 0 Z " fill="#E0E1F8" transform="translate(900,674)"/>
<path d="M0 0 C2 1 2 1 3 3 C2.67 3.99 2.34 4.98 2 6 C0.68 5.34 -0.64 4.68 -2 4 C-2 3.01 -2 2.02 -2 1 C-1.34 0.67 -0.68 0.34 0 0 Z " fill="#1A176C" transform="translate(867,633)"/>
<path d="M0 0 C0.99 0.33 1.98 0.66 3 1 C3 1.66 3 2.32 3 3 C4.9600281 4.63676257 4.9600281 4.63676257 7 6 C6.34 6 5.68 6 5 6 C4.67 6.66 4.34 7.32 4 8 C2 6.25 2 6.25 0 4 C0 2.68 0 1.36 0 0 Z " fill="#1B1A79" transform="translate(886,553)"/>
<path d="M0 0 C2.31 1.98 4.62 3.96 7 6 C3 8 3 8 2 8 C1.34 5.36 0.68 2.72 0 0 Z " fill="#1A1675" transform="translate(889,542)"/>
<path d="M0 0 C3.31832766 0.98652984 4.76548627 1.68731503 6.875 4.5 C7.24625 5.325 7.6175 6.15 8 7 C7.67 7.66 7.34 8.32 7 9 C5.82737096 7.88121617 4.66204862 6.75476949 3.5 5.625 C2.8503125 4.99851562 2.200625 4.37203125 1.53125 3.7265625 C0 2 0 2 0 0 Z " fill="#18186A" transform="translate(897,669)"/>
<path d="M0 0 C1.32 0 2.64 0 4 0 C4 0.66 4 1.32 4 2 C5.32 2.33 6.64 2.66 8 3 C7.01 3.99 6.02 4.98 5 6 C3.35 4.02 1.7 2.04 0 0 Z " fill="#2B2B81" transform="translate(891,664)"/>
<path d="M0 0 C0.66 0.66 1.32 1.32 2 2 C1.01 3.485 1.01 3.485 0 5 C-3.625 5.1875 -3.625 5.1875 -7 5 C-2.25 1.125 -2.25 1.125 0 0 Z " fill="#202174" transform="translate(885,622)"/>
<path d="M0 0 C3.48539917 0.64544429 6.02819057 2.10134397 9 4 C8.67 4.99 8.34 5.98 8 7 C7.236875 6.360625 6.47375 5.72125 5.6875 5.0625 C3.11753287 2.85767219 3.11753287 2.85767219 0 2 C0 1.34 0 0.68 0 0 Z " fill="#212071" transform="translate(664,532)"/>
<path d="M0 0 C1.32 0.66 2.64 1.32 4 2 C3.67 2.99 3.34 3.98 3 5 C3.66 5.33 4.32 5.66 5 6 C3.125 5.75 3.125 5.75 1 5 C-0.25 2.9375 -0.25 2.9375 -1 1 C-0.67 0.67 -0.34 0.34 0 0 Z " fill="#191699" transform="translate(905,562)"/>
<path d="M0 0 C0.99 0.33 1.98 0.66 3 1 C2.34 2.32 1.68 3.64 1 5 C0.34 5 -0.32 5 -1 5 C-1.33 5.66 -1.66 6.32 -2 7 C-2.33 6.34 -2.66 5.68 -3 5 C-1.5625 2.375 -1.5625 2.375 0 0 Z " fill="#ECECF7" transform="translate(676,670)"/>
<path d="M0 0 C1.65 1.65 3.3 3.3 5 5 C4.01 5.33 3.02 5.66 2 6 C1.01 5.01 0.02 4.02 -1 3 C-0.67 2.01 -0.34 1.02 0 0 Z " fill="#F1F2FD" transform="translate(875,648)"/>
<path d="M0 0 C1.65 0 3.3 0 5 0 C4.67 1.32 4.34 2.64 4 4 C2.68 3.67 1.36 3.34 0 3 C0 2.01 0 1.02 0 0 Z " fill="#181297" transform="translate(273,628)"/>
<path d="M0 0 C0 1.65 0 3.3 0 5 C-1.32 5 -2.64 5 -4 5 C-4.33 5.66 -4.66 6.32 -5 7 C-4.53479806 4.30182875 -3.4249099 0 0 0 Z " fill="#242280" transform="translate(1038,616)"/>
<path d="M0 0 C0.99 0 1.98 0 3 0 C2.34 1.98 1.68 3.96 1 6 C-0.32 5.67 -1.64 5.34 -3 5 C-2.34 5 -1.68 5 -1 5 C-0.67 3.35 -0.34 1.7 0 0 Z " fill="#F5F9F0" transform="translate(1032,613)"/>
<path d="M0 0 C0.66 0.33 1.32 0.66 2 1 C2.625 3.0625 2.625 3.0625 3 5 C1.35 5.33 -0.3 5.66 -2 6 C-2 2 -2 2 0 0 Z " fill="#211D8F" transform="translate(892,556)"/>
<path d="M0 0 C1.98 1.65 3.96 3.3 6 5 C5.34 5.66 4.68 6.32 4 7 C2 5.1875 2 5.1875 0 3 C0 2.01 0 1.02 0 0 Z " fill="#E2E4F6" transform="translate(960,550)"/>
<path d="M0 0 C0.66 0.33 1.32 0.66 2 1 C0.35 2.98 -1.3 4.96 -3 7 C-3.99 6.67 -4.98 6.34 -6 6 C-4.02 4.02 -2.04 2.04 0 0 Z " fill="#E2E4F5" transform="translate(145,537)"/>
</svg>
